<svg width="200" height="200" viewBox="0 0 200 200" fill="none" xmlns="http://www.w3.org/2000/svg">
<g id="Random pose 2 1">
<path id="Vector" d="M115.867 27.6C114.8 28.24 111.6 33.4666 110.133 36C110.933 37.0666 104.534 47.3333 100.534 48C96.5344 48.6666 93.6011 54 91.6011 58.1333C90.0011 61.44 93.4232 62.9778 95.3344 63.3333C105.361 66.1066 111.246 62.1778 112.934 59.8666L110.801 70.2666L101.068 91.7333L90.1344 98.1333L85.6011 102.933L82.9344 111.733C76.7486 115.573 62.5792 130.933 56.2678 138.133C40.0011 150.8 43.7334 176.133 42.5334 179.467C41.3334 182.8 44.2667 191.067 49.3334 193.467C53.3867 195.387 84.0891 194.622 98.9334 194L98.2667 189.733L80.8 186.267C88.2667 181.787 90.4891 171.6 90.6667 167.067C93.6534 160.56 100.711 154.755 103.867 152.667L108.933 179.467C110.045 183.955 112.267 193.04 112.267 193.467C112.267 194 117.6 194.267 122.4 194C127.2 193.733 126.4 192.933 127.467 189.733C128.32 187.173 123.467 184.4 120.933 183.333C120.667 174.711 120 155.947 119.467 149.867C118.933 143.787 120.756 139.511 121.733 138.133L127.333 133.067L140.267 189.2L142.4 192.933C147.156 194.444 156.853 196.187 157.6 191.067C158.347 185.947 153.822 183.778 151.467 183.333L149.467 181.067C146.373 172.96 144.8 135.911 144.4 118.4C145.733 117.245 148.693 113.787 149.867 109.2C151.04 104.613 151.511 82.7554 151.6 72.4C161.6 62.2666 156.267 50 153.2 47.3333C150.747 45.2 148.267 39.5112 147.333 36.9333C147.12 27.44 143.778 17.4222 142.133 13.6L132.4 7.59998C127.333 14 116.933 26.96 115.867 27.6Z" fill="#F5F1DC"/>
<path id="Vector_2" fill-rule="evenodd" clip-rule="evenodd" d="M153.077 72.8922C152.773 71.8986 151.992 71.2826 151.116 71.0927C150.257 70.9063 149.307 71.1252 148.569 71.7418C142.497 76.8159 135.912 78.9452 129.354 78.7583C122.781 78.5711 116.175 76.0548 110.097 71.7327C108.411 70.5335 105.987 71.3138 105.341 73.293C103.713 78.2828 101.338 83.2842 98.6911 87.6892C98.1452 88.5975 96.8993 90.1719 95.282 92.0703C93.6988 93.9292 91.8049 96.0471 89.9745 98.0538C91.0609 98.5956 91.8049 99.6991 91.8049 100.972C91.8049 102.781 90.3039 104.247 88.4524 104.247C87.2703 104.247 86.2311 103.65 85.6343 102.747C85.4047 102.992 85.1852 103.226 84.9772 103.447C84.3207 104.146 83.7799 104.718 83.4031 105.115C83.2148 105.313 83.0676 105.468 82.9673 105.573L82.8956 105.648C81.3313 106.626 80.6559 108.099 80.6447 109.74C80.6337 111.356 81.2609 113.112 82.1839 114.779C84.0321 118.116 87.2713 121.455 90.1428 123.205C92.93 124.904 95.9927 126.715 99.1369 127.928C99.286 127.986 99.7823 128.173 100.247 128.328C100.475 128.405 100.719 128.482 100.917 128.53C101.005 128.551 101.135 128.58 101.264 128.587C101.314 128.591 101.463 128.599 101.632 128.547C101.722 128.52 101.883 128.456 102.029 128.305C102.092 128.24 102.144 128.167 102.185 128.089C103.225 126.411 105.233 124.079 107.871 122.531C110.509 120.982 113.727 120.24 117.277 121.643C119.79 122.636 120.743 124.668 121.039 127.16C121.188 128.418 121.163 129.756 121.089 131.08C121.061 131.573 121.025 132.078 120.989 132.575V132.576C120.932 133.368 120.877 134.142 120.859 134.821C120.823 136.11 121.452 137.1 122.476 137.55C123.442 137.973 124.611 137.854 125.64 137.329C135.678 132.212 142.654 124.043 147.234 115.072C145.761 114.727 144.666 113.432 144.666 111.888C144.666 110.079 146.167 108.613 148.018 108.613C148.705 108.613 149.344 108.815 149.876 109.161C150.356 107.924 150.795 106.681 151.196 105.438C155.214 92.9586 155.35 80.3074 153.077 72.8922Z" fill="#174D20"/>
<path id="Vector_3" fill-rule="evenodd" clip-rule="evenodd" d="M149.795 189.107C149.551 189.218 149.449 189.511 149.571 189.75L149.688 189.979C150.057 190.699 150.001 191.794 150 193.671C150 193.704 149.996 193.737 149.989 193.769C149.926 194.027 150.121 194.275 150.386 194.275L150.705 194.275C151.07 194.275 151.365 193.98 151.365 193.615V193.525C151.365 193.473 151.365 193.421 151.365 193.37C151.365 191.673 151.102 190.673 150.546 189.589L150.409 189.321C150.295 189.097 150.024 189.003 149.795 189.107Z" fill="#174D20"/>
<path id="Vector_4" fill-rule="evenodd" clip-rule="evenodd" d="M119.471 189.42C119.227 189.531 119.125 189.823 119.247 190.062L119.364 190.291C119.733 191.011 119.677 192.107 119.676 193.984C119.676 194.017 119.672 194.05 119.664 194.081C119.601 194.339 119.796 194.588 120.061 194.587H120.381C120.745 194.587 121.04 194.292 121.04 193.928V193.837C121.04 193.785 121.04 193.733 121.04 193.682C121.04 191.985 120.777 190.986 120.222 189.901L120.085 189.633C119.97 189.41 119.7 189.315 119.471 189.42Z" fill="#174D20"/>
<path id="Vector_5" fill-rule="evenodd" clip-rule="evenodd" d="M153.246 188.261C152.988 188.411 152.891 188.736 153.025 189.003L153.123 189.199C153.58 190.115 153.532 190.885 153.53 192.941C153.53 193.098 153.53 193.235 153.53 193.407C153.53 193.821 153.866 194.157 154.28 194.157C154.695 194.157 155.03 193.821 155.03 193.407C155.03 193.191 155.031 192.985 155.032 192.787C155.037 190.895 154.759 189.901 154.136 188.653L154.013 188.453C153.852 188.191 153.511 188.106 153.246 188.261Z" fill="#174D20"/>
<path id="Vector_6" fill-rule="evenodd" clip-rule="evenodd" d="M122.918 188.571C122.66 188.721 122.563 189.046 122.696 189.313L122.795 189.509C123.252 190.425 123.204 191.195 123.202 193.251C123.202 193.408 123.202 193.545 123.202 193.717C123.202 194.131 123.538 194.467 123.952 194.467C124.367 194.467 124.702 194.131 124.702 193.717C124.702 193.501 124.703 193.295 124.703 193.098C124.71 191.206 124.431 190.211 123.808 188.963L123.685 188.763C123.524 188.501 123.183 188.416 122.918 188.571Z" fill="#174D20"/>
<path id="Vector_7" fill-rule="evenodd" clip-rule="evenodd" d="M131.51 10.4609C131.49 10.4854 131.471 10.5093 131.452 10.5321C130.405 11.7738 129.165 13.0971 128.148 14.351C126.08 16.8985 123.773 19.2197 121.589 21.6147C120.876 22.396 120.165 23.1759 119.46 23.9588C117.14 26.5341 115.023 29.9089 113.966 33.4524C112.911 36.9892 112.304 40.6252 114.128 43.8361L114.469 44.4367C114.53 44.5433 114.515 44.6769 114.431 44.7671C114.043 45.1871 113.359 45.1071 113.12 44.5876C111.452 40.9719 111.199 36.4535 112.247 32.9399C113.395 29.0911 115.668 25.4885 118.127 22.7586C118.849 21.9571 119.571 21.1654 120.29 20.3772C122.466 17.9917 124.613 15.6375 126.645 13.134C127.674 11.8657 128.722 10.6181 129.769 9.37642C129.811 9.32666 129.872 9.23999 129.967 9.1029C129.972 9.0957 129.977 9.08828 129.982 9.08066C130.058 8.97066 130.163 8.81815 130.261 8.70124C130.305 8.64799 130.403 8.53386 130.539 8.44175C130.604 8.3974 130.753 8.30444 130.966 8.27719C131.229 8.24335 131.524 8.32188 131.745 8.54506C131.923 8.72508 131.98 8.92706 132 9.01914C132.024 9.12516 132.028 9.22023 132.027 9.28508C132.027 9.4161 132.01 9.55463 131.988 9.68362L131.841 10.568L131.51 10.4609Z" fill="#174D20"/>
<path id="Vector_8" fill-rule="evenodd" clip-rule="evenodd" d="M142.078 10.5791L142.47 11.3859C142.782 12.0308 142.959 12.7297 143.111 13.3323C143.16 13.5271 143.207 13.7119 143.255 13.8815C143.71 15.4904 144.231 17.0804 144.76 18.6908C144.815 18.8584 144.87 19.0261 144.925 19.1942C145.507 20.9699 146.088 22.7713 146.568 24.6076C148.523 32.077 149.156 42.2055 146.203 49.8839L146.129 50.0759C146.004 50.4021 145.604 50.5213 145.321 50.317C145.124 50.1757 145.048 49.9194 145.134 49.6935L145.309 49.2402C148.047 42.1215 146.773 32.4709 144.834 25.0616C144.368 23.2838 143.803 21.5289 143.221 19.7526C143.166 19.5843 143.11 19.4157 143.055 19.2469C142.528 17.642 141.995 16.0161 141.529 14.369C141.452 14.0941 141.389 13.8471 141.331 13.6184C141.194 13.0755 141.082 12.6353 140.856 12.1682L140.465 11.3614L142.078 10.5791Z" fill="#174D20"/>
<path id="Vector_9" fill-rule="evenodd" clip-rule="evenodd" d="M148.562 50.2986C149.04 50.4847 149.366 50.9362 149.365 51.449C149.363 53.048 149.2 54.9015 149.046 56.5895C149.021 56.8565 148.996 57.1245 148.971 57.3933C148.808 59.152 148.641 60.9461 148.589 62.7458C148.467 66.8991 148.964 70.8978 151.394 74.1618L151.929 74.881L150.023 75.9517L149.487 75.2325C146.694 71.4794 146.671 66.9797 146.796 62.6933C146.85 60.8322 147.179 58.9762 147.342 57.2215C147.367 56.9538 147.392 56.6887 147.416 56.4263C147.599 54.4226 148.054 52.5831 147.985 50.9551L147.975 50.7183C147.962 50.4077 148.272 50.1858 148.562 50.2986Z" fill="#174D20"/>
<path id="Vector_10" fill-rule="evenodd" clip-rule="evenodd" d="M148.058 35.2289L148.259 36.1028C148.858 38.707 150.279 41.6964 151.623 44.0052C152.28 45.134 153 46.1841 153.739 47.2638C154.187 47.9185 154.643 48.5838 155.097 49.2843C156.267 51.0902 157.35 53.0281 157.933 55.2566C158.814 58.6291 158.206 62.1473 157.149 65.2417L157.104 65.3755C156.973 65.7569 156.541 65.9401 156.177 65.7683C155.866 65.6217 155.714 65.2646 155.826 64.9393L155.92 64.6622C156.922 61.7283 156.953 58.6003 156.198 55.7102C155.687 53.7566 154.725 52.0081 153.592 50.2595C153.192 49.6425 152.76 49.0108 152.321 48.3678C151.55 47.2406 150.756 46.0798 150.073 44.9073C148.639 42.4425 147.557 39.7092 146.918 36.9292V36.2601L148.058 35.2289Z" fill="#174D20"/>
<path id="Vector_11" fill-rule="evenodd" clip-rule="evenodd" d="M110.373 35.2323C110.525 35.2899 110.61 35.4518 110.571 35.6097L110.426 36.2043C109.344 40.6419 107.943 43.0795 105.589 45.0465C104.441 46.0054 103.15 46.8443 101.769 47.7379C101.727 47.7643 101.686 47.791 101.645 47.8177C100.287 48.6955 98.8187 49.6446 97.2158 50.8558C96.0555 51.7323 94.9886 53.1934 94.0763 54.8158C93.1734 56.4219 92.6208 57.9515 92.1493 59.2003C91.8325 60.039 92.1165 60.8161 92.7608 61.1561C94.0645 61.8449 96.171 62.9107 99.7568 63.5219C102.71 64.0254 105.753 63.6177 108.137 61.955C108.555 61.6635 109.126 61.7345 109.46 62.1198L109.537 62.2089C109.647 62.3353 109.623 62.5289 109.486 62.6246L109.007 62.9582C106.139 64.9582 102.74 65.8497 99.4555 65.2897C95.7003 64.6497 93.2547 63.6833 91.7672 62.8977C90.1798 62.0593 89.7408 60.2454 90.3158 58.723C90.8051 57.4267 91.5499 55.6505 92.5134 53.9369C93.4675 52.2398 94.6803 50.5238 96.1347 49.4251C97.7909 48.1737 99.3069 47.1937 100.66 46.3193C100.705 46.2899 100.75 46.2609 100.795 46.2318C102.192 45.3286 103.389 44.5473 104.439 43.6705C106.479 41.9657 108.31 39.8705 109.308 35.7795C109.421 35.3169 109.913 35.0577 110.359 35.2267L110.373 35.2323Z" fill="#174D20"/>
<path id="Vector_12" fill-rule="evenodd" clip-rule="evenodd" d="M135.07 15.026C135.576 15.4098 136.147 15.7668 136.734 15.9633V16.1209H137.631H138.528V16.0339C139.924 15.7616 141.14 14.8761 142.007 13.7432C143.06 12.3684 143.679 10.5334 143.516 8.68158C143.414 7.51315 142.886 6.63443 142.1 6.02387C141.346 5.4375 140.399 5.13198 139.476 4.97153C137.709 4.66451 135.715 4.84267 134.523 4.94915L134.385 4.9615C133.772 5.01582 132.795 5.15062 131.94 5.52009C131.101 5.88318 130.111 6.60673 130.086 7.93446C130.079 8.31102 130.195 8.70558 130.331 9.04942C130.473 9.4127 130.673 9.80777 130.909 10.2117C131.381 11.0205 132.028 11.9227 132.745 12.7661C133.461 13.6077 134.269 14.4177 135.07 15.026Z" fill="#174D20"/>
<path id="Vector_13" fill-rule="evenodd" clip-rule="evenodd" d="M137.37 14.2212C137.771 14.0921 138.089 14.2689 138.19 14.3322L138.951 14.8075L138.522 15.4937C138.524 15.5092 138.526 15.5255 138.528 15.5426L138.529 15.5437C138.54 15.6349 138.561 15.7949 138.558 15.9395C138.547 16.6925 138.241 17.4317 138.248 18.1831C138.252 18.6426 138.257 19.1068 138.257 19.5813V20.4779H136.931V19.5813C136.931 19.142 136.927 18.6919 136.923 18.237C136.916 17.4656 136.753 16.6806 136.766 15.9113C136.766 15.9129 136.765 15.912 136.765 15.9076C136.764 15.8954 136.761 15.8562 136.75 15.7718C136.748 15.7561 136.745 15.7383 136.743 15.7191C136.732 15.636 136.717 15.5249 136.709 15.4272C136.703 15.3641 136.698 15.2854 136.699 15.2032C136.701 15.1334 136.706 14.9981 136.754 14.8498C136.795 14.7191 136.942 14.3592 137.37 14.2212Z" fill="#174D20"/>
<path id="Vector_14" fill-rule="evenodd" clip-rule="evenodd" d="M140.007 19.5687C141.597 20.6593 142.753 22.9521 142.994 26.9269L143.009 27.1738C143.031 27.5338 142.761 27.8453 142.401 27.8749C142.031 27.9053 141.707 27.6253 141.685 27.2541L141.672 27.0354C141.445 23.2914 139.914 21.6797 138.993 21.0473C138.081 20.4217 137.068 20.5901 136.495 20.9429C135.297 21.6809 134.383 22.815 133.82 24.1478C132.821 26.514 131.963 29.3621 131.69 32.0488L131.685 32.0928C131.638 32.5562 131.216 32.8882 130.754 32.8245C130.491 32.7882 130.304 32.5501 130.331 32.2856L130.373 31.8674C130.646 29.1813 131.054 26.0899 132.168 23.4503C132.858 21.8165 134.002 20.3727 135.555 19.4161C136.618 18.7614 138.408 18.4713 140.007 19.5687Z" fill="#174D20"/>
<path id="Vector_15" d="M113.645 86.158C113.645 87.7081 112.353 88.9647 110.76 88.9647C109.167 88.9647 107.875 87.7081 107.875 86.158C107.875 84.6079 109.167 83.3511 110.76 83.3511C112.353 83.3511 113.645 84.6079 113.645 86.158Z" fill="#F5F1DC"/>
<path id="Vector_16" d="M123.154 99.7246C123.154 101.533 121.653 102.999 119.802 102.999C117.95 102.999 116.449 101.533 116.449 99.7246C116.449 97.9161 117.95 96.4502 119.802 96.4502C121.653 96.4502 123.154 97.9161 123.154 99.7246Z" fill="#F5F1DC"/>
<path id="Vector_17" d="M135.783 119.371C135.783 120.663 134.701 121.71 133.366 121.71C132.031 121.71 130.949 120.663 130.949 119.371C130.949 118.079 132.031 117.032 133.366 117.032C134.701 117.032 135.783 118.079 135.783 119.371Z" fill="#F5F1DC"/>
<path id="Vector_18" d="M149.346 95.5139C149.346 97.3225 147.845 98.7886 145.993 98.7886C144.142 98.7886 142.641 97.3225 142.641 95.5139C142.641 93.7054 144.142 92.2393 145.993 92.2393C147.845 92.2393 149.346 93.7054 149.346 95.5139Z" fill="#F5F1DC"/>
<path id="Vector_19" d="M103.51 117.033C103.51 118.841 102.009 120.308 100.157 120.308C98.3058 120.308 96.8047 118.841 96.8047 117.033C96.8047 115.225 98.3058 113.759 100.157 113.759C102.009 113.759 103.51 115.225 103.51 117.033Z" fill="#F5F1DC"/>
<path id="Vector_20" fill-rule="evenodd" clip-rule="evenodd" d="M104.359 154.096L103.527 154.431C100.937 155.474 98.2678 157.96 96.059 160.745C93.8563 163.522 92.0712 166.137 91.4918 167.912L91.2134 168.764L89.9766 168.519L90.255 167.667C90.923 165.621 92.3734 162.506 94.6539 159.63C96.928 156.763 99.8336 153.518 102.857 152.3L103.689 151.965L104.359 154.096Z" fill="#174D20"/>
<path id="Vector_21" fill-rule="evenodd" clip-rule="evenodd" d="M85.3251 107.343L85.8368 109.321C85.4536 109.732 85.064 110.141 84.6728 110.546C83.2283 112.04 81.7198 113.513 80.3998 114.801L80.3995 114.801C79.6811 115.503 79.0184 116.149 78.4526 116.715C76.5187 118.649 74.4688 120.447 72.4336 122.217C72.2998 122.334 72.1656 122.45 72.0318 122.567C70.1264 124.223 68.2414 125.863 66.4472 127.599C62.8432 131.088 59.4208 134.789 56.1203 138.584C52.3176 142.957 48.8128 148.163 46.8976 153.576C45.6358 157.142 44.9534 161.02 44.2819 164.835L44.2166 165.207C43.6827 168.236 43.3947 171.241 43.3411 174.314C43.268 178.508 43.2883 182.676 44.3782 186.61C44.4118 186.731 44.4448 186.851 44.4774 186.97C45.6208 191.143 49.4728 193.752 53.9051 193.752H97.8139C98.136 193.752 98.3363 193.544 98.3662 193.344C98.5091 192.384 98.4744 191.421 98.0355 190.699C97.6331 190.036 96.7571 189.366 94.7128 189.267C94.6379 189.263 94.5603 189.259 94.4715 189.25C93.8392 189.189 90.2462 188.643 86.684 188.1C83.063 187.549 79.4734 187.003 79.0582 186.977C78.7574 186.959 78.4952 186.784 78.3574 186.529C78.2896 186.404 78.363 186.258 78.4902 186.194L78.5435 186.168C85.7299 182.36 88.7728 174.857 89.5912 169.63C90.6246 163.03 88.7587 156.805 85.6502 150.864C85.5579 150.687 85.4678 150.512 85.3776 150.336C84.579 148.783 83.792 147.252 81.7624 145.504C81.6035 145.368 81.5488 145.143 81.6331 144.951C81.7512 144.682 82.0846 144.587 82.3272 144.752L82.5683 144.917C84.4894 146.228 86.1752 148.169 87.1691 150.069C90.3683 156.183 92.3971 162.793 91.2851 169.895C90.5091 174.851 88.799 181.771 82.5683 186.168C85.4878 186.44 89.6976 186.951 92.3238 187.27C93.4928 187.412 94.3478 187.516 94.6355 187.544C94.6851 187.548 94.732 187.551 94.796 187.554C97.2043 187.671 98.7104 188.507 99.5008 189.809C100.255 191.05 100.224 192.509 100.062 193.597C99.8896 194.753 98.8622 195.467 97.8139 195.467H53.9051C48.8086 195.467 44.199 192.44 42.824 187.423C42.7918 187.306 42.7592 187.187 42.7259 187.068C41.5622 182.866 41.5542 178.469 41.627 174.284C41.6822 171.122 41.9787 168.027 42.528 164.909C42.5528 164.769 42.5776 164.628 42.6022 164.488L42.6027 164.486C43.2667 160.711 43.971 156.708 45.2816 153.004C47.2926 147.319 50.9398 141.928 54.8267 137.459C58.1494 133.639 61.6062 129.9 65.255 126.368C67.0832 124.597 69.0014 122.93 70.8992 121.279C71.0358 121.161 71.1723 121.042 71.3086 120.924C73.3459 119.151 75.3536 117.389 77.2403 115.503C77.835 114.908 78.5118 114.248 79.2374 113.54C80.5432 112.265 82.008 110.836 83.4403 109.355C84.0902 108.683 84.7246 108.008 85.3251 107.343Z" fill="#174D20"/>
<path id="Vector_22" fill-rule="evenodd" clip-rule="evenodd" d="M144.657 117.41L144.631 118.306C144.419 125.705 145.281 138.583 146.487 150.994C147.694 163.406 149.237 175.258 150.37 180.601C150.571 181.55 151.437 182.267 152.666 182.625C154.577 183.18 156.688 184.328 157.536 186.394C158.057 187.663 158.185 189.133 158.148 190.451C158.069 193.297 155.511 195.038 152.943 195.038H145.543C142.677 195.038 140.256 192.98 139.666 190.211C138.866 186.459 137.855 182.426 136.89 178.573C136.82 178.291 136.749 178.011 136.679 177.732C135.656 173.642 134.702 169.784 134.15 166.781C133.282 162.049 132.005 156.894 130.757 151.855C130.389 150.371 130.024 148.897 129.673 147.446C128.141 141.126 126.855 135.209 126.855 131.067V130.17H129.428V131.067C129.429 134.955 129.872 140.655 131.415 147.024C131.762 148.453 132.123 149.913 132.489 151.388C133.739 156.435 135.034 161.666 135.914 166.458C136.453 169.393 137.391 173.191 138.419 177.297C138.489 177.578 138.56 177.86 138.631 178.144C139.595 181.989 140.769 185.896 141.575 189.682C141.997 191.658 143.715 193.089 145.699 193.089L153.255 193.401C155.142 193.401 156.623 192.166 156.668 190.558C156.701 189.36 156.575 188.173 156.189 187.231C155.653 185.923 154.2 185.003 152.478 184.503C150.939 184.055 149.012 182.843 148.615 180.973C147.46 175.522 145.91 163.581 144.703 151.168C143.496 138.755 142.623 125.777 142.839 118.255L142.865 117.358L144.657 117.41Z" fill="#174D20"/>
<path id="Vector_23" fill-rule="evenodd" clip-rule="evenodd" d="M102.413 125.146L102.448 126.042C103.176 144.606 105.061 155.659 106.642 164.924C106.749 165.551 106.854 166.169 106.958 166.782C107.745 171.426 110.174 182.696 111.96 190.77C112.311 192.353 113.716 193.479 115.341 193.479H124.591C124.949 193.479 125.138 193.438 125.255 193.37C125.83 193.031 126.787 192.052 126.697 189.811C126.658 188.845 125.994 187.899 124.858 187.024C123.744 186.167 122.332 185.503 121.163 185.084C120.283 184.768 119.602 183.956 119.559 182.951C119.08 171.613 118.198 149.866 118.198 146.27C118.198 144.215 119.083 141.844 120.105 139.793C121.139 137.716 122.378 135.841 123.213 134.736L123.754 134.021L125.184 135.103L124.644 135.818C123.867 136.844 122.257 137.827 121.277 139.793C120.285 141.786 119.991 144.646 119.991 146.27C119.991 149.816 121.338 171.349 121.819 182.719C121.827 182.927 121.975 183.146 122.237 183.24C123.51 183.697 124.64 184.593 125.951 185.603C127.241 186.596 128.418 187.979 128.489 189.74C128.603 192.603 127.342 194.222 126.165 194.915C125.613 195.24 125.01 195.272 124.591 195.272H115.341C112.878 195.272 110.742 193.565 110.209 191.157C108.427 183.1 105.986 171.78 105.19 167.081C105.086 166.469 104.981 165.851 104.874 165.223C103.29 155.937 101.389 144.793 100.656 126.112L100.621 125.216L102.413 125.146Z" fill="#174D20"/>
<path id="Vector_24" fill-rule="evenodd" clip-rule="evenodd" d="M111.121 46.7432C111.419 46.7429 111.688 46.925 111.791 47.204C113.62 52.1165 115.901 62.1469 109.39 76.3952L109.018 77.2106L107.387 76.4653L107.76 75.6498C114.262 61.4186 112.077 51.8952 110.391 47.5792C110.234 47.1776 110.53 46.7437 110.961 46.7432H111.121Z" fill="#174D20"/>
</g>
</svg>
