<svg xmlns="http://www.w3.org/2000/svg" xmlns:xlink="http://www.w3.org/1999/xlink" width="1000" zoomAndPan="magnify" viewBox="0 0 750 749.999995" height="1000" preserveAspectRatio="xMidYMid meet" version="1.0"><path fill="#f5f1dc" d="M 99.777344 453.835938 L 99.777344 478.046875 C 99.777344 513.707031 222.992188 542.613281 374.992188 542.613281 C 526.988281 542.613281 650.203125 513.707031 650.203125 478.046875 L 650.203125 453.835938 " fill-opacity="1" fill-rule="nonzero"/><path fill="#f5f1dc" d="M 650.203125 449.394531 C 650.203125 486.167969 526.988281 515.980469 374.992188 515.980469 C 222.992188 515.980469 99.777344 486.167969 99.777344 449.394531 C 99.777344 412.621094 222.992188 382.8125 374.992188 382.8125 C 526.988281 382.8125 650.203125 412.621094 650.203125 449.394531 Z M 650.203125 449.394531 " fill-opacity="1" fill-rule="nonzero"/><path fill="#f5f1dc" d="M 721.679688 475.585938 C 721.679688 486.375 712.9375 495.117188 702.148438 495.117188 C 691.359375 495.117188 682.617188 486.375 682.617188 475.585938 C 682.617188 464.796875 691.359375 456.054688 702.148438 456.054688 C 712.9375 456.054688 721.679688 464.796875 721.679688 475.585938 Z M 721.679688 475.585938 " fill-opacity="1" fill-rule="nonzero"/><path fill="#174d20" d="M 702.148438 461.546875 C 694.394531 461.546875 688.109375 467.832031 688.109375 475.585938 C 688.109375 483.339844 694.394531 489.625 702.148438 489.625 C 709.902344 489.625 716.1875 483.339844 716.1875 475.585938 C 716.1875 467.832031 709.902344 461.546875 702.148438 461.546875 Z M 677.125 475.585938 C 677.125 461.765625 688.328125 450.5625 702.148438 450.5625 C 715.96875 450.5625 727.171875 461.765625 727.171875 475.585938 C 727.171875 489.40625 715.96875 500.609375 702.148438 500.609375 C 688.328125 500.609375 677.125 489.40625 677.125 475.585938 Z M 677.125 475.585938 " fill-opacity="1" fill-rule="evenodd"/><path fill="#f5f1dc" d="M 583.742188 279.660156 C 583.742188 306.964844 488.644531 329.097656 371.335938 329.097656 C 254.03125 329.097656 158.9375 306.964844 158.9375 279.660156 C 158.9375 252.355469 254.03125 230.222656 371.335938 230.222656 C 488.644531 230.222656 583.742188 252.355469 583.742188 279.660156 Z M 583.742188 279.660156 " fill-opacity="1" fill-rule="nonzero"/><path fill="#174d20" d="M 167.375 273.324219 C 165.148438 275.855469 164.429688 277.953125 164.429688 279.660156 C 164.429688 281.367188 165.148438 283.460938 167.375 285.996094 C 169.636719 288.566406 173.214844 291.304688 178.273438 294.089844 C 188.390625 299.65625 203.386719 304.84375 222.390625 309.265625 C 260.3125 318.09375 312.976562 323.605469 371.335938 323.605469 C 429.699219 323.605469 482.363281 318.09375 520.28125 309.265625 C 539.289062 304.84375 554.285156 299.65625 564.402344 294.089844 C 569.460938 291.304688 573.039062 288.566406 575.300781 285.996094 C 577.527344 283.460938 578.246094 281.367188 578.246094 279.660156 C 578.246094 277.953125 577.527344 275.855469 575.300781 273.324219 C 573.039062 270.753906 569.460938 268.011719 564.402344 265.226562 C 554.285156 259.664062 539.289062 254.476562 520.28125 250.050781 C 482.363281 241.226562 429.699219 235.714844 371.335938 235.714844 C 312.976562 235.714844 260.3125 241.226562 222.390625 250.050781 C 203.386719 254.476562 188.390625 259.664062 178.273438 265.226562 C 173.214844 268.011719 169.636719 270.753906 167.375 273.324219 Z M 219.902344 239.351562 C 258.855469 230.285156 312.394531 224.726562 371.335938 224.726562 C 430.28125 224.726562 483.820312 230.285156 522.773438 239.351562 C 542.207031 243.875 558.3125 249.339844 569.695312 255.601562 C 575.386719 258.734375 580.152344 262.203125 583.550781 266.070312 C 586.980469 269.96875 589.234375 274.539062 589.234375 279.660156 C 589.234375 284.777344 586.980469 289.347656 583.550781 293.25 C 580.152344 297.117188 575.386719 300.585938 569.695312 303.714844 C 558.3125 309.980469 542.207031 315.445312 522.773438 319.96875 C 483.820312 329.035156 430.28125 334.589844 371.335938 334.589844 C 312.394531 334.589844 258.855469 329.035156 219.902344 319.96875 C 200.46875 315.445312 184.363281 309.980469 172.976562 303.714844 C 167.289062 300.585938 162.523438 297.117188 159.125 293.25 C 155.695312 289.347656 153.441406 284.777344 153.441406 279.660156 C 153.441406 274.539062 155.695312 269.96875 159.125 266.070312 C 162.523438 262.203125 167.289062 258.734375 172.976562 255.601562 C 184.363281 249.339844 200.46875 243.875 219.902344 239.351562 Z M 219.902344 239.351562 " fill-opacity="1" fill-rule="evenodd"/><path fill="#174d20" d="M 111.238281 439.566406 C 108.199219 443.015625 107.054688 446.054688 107.054688 448.726562 C 107.054688 451.398438 108.199219 454.4375 111.238281 457.886719 C 114.308594 461.371094 119.089844 464.996094 125.691406 468.621094 C 138.894531 475.867188 158.367188 482.566406 182.894531 488.261719 C 231.859375 499.628906 299.78125 506.710938 375 506.710938 C 450.21875 506.710938 518.140625 499.628906 567.105469 488.261719 C 591.632812 482.566406 611.105469 475.867188 624.304688 468.621094 C 630.910156 464.996094 635.691406 461.371094 638.761719 457.886719 C 641.800781 454.4375 642.945312 451.398438 642.945312 448.726562 C 642.945312 446.054688 641.800781 443.015625 638.761719 439.566406 C 635.691406 436.082031 630.910156 432.457031 624.304688 428.835938 C 611.105469 421.589844 591.632812 414.886719 567.105469 409.191406 C 518.140625 397.824219 450.21875 390.742188 375 390.742188 C 299.78125 390.742188 231.859375 397.824219 182.894531 409.191406 C 158.367188 414.886719 138.894531 421.589844 125.691406 428.835938 C 119.089844 432.457031 114.308594 436.082031 111.238281 439.566406 Z M 180.40625 398.492188 C 230.40625 386.882812 299.203125 379.757812 375 379.757812 C 450.796875 379.757812 519.59375 386.882812 569.59375 398.492188 C 594.546875 404.285156 615.121094 411.261719 629.59375 419.203125 C 636.824219 423.171875 642.789062 427.523438 647.003906 432.300781 C 651.246094 437.117188 653.929688 442.632812 653.929688 448.726562 C 653.929688 454.820312 651.246094 460.335938 647.003906 465.152344 C 642.789062 469.929688 636.824219 474.28125 629.59375 478.25 C 615.121094 486.191406 594.546875 493.167969 569.59375 498.960938 C 519.59375 510.570312 450.796875 517.695312 375 517.695312 C 299.203125 517.695312 230.40625 510.570312 180.40625 498.960938 C 155.453125 493.167969 134.878906 486.191406 120.40625 478.25 C 113.175781 474.28125 107.210938 469.929688 102.996094 465.152344 C 98.753906 460.335938 96.070312 454.820312 96.070312 448.726562 C 96.070312 442.632812 98.753906 437.117188 102.996094 432.300781 C 107.210938 427.523438 113.175781 423.171875 120.40625 419.203125 C 134.878906 411.261719 155.453125 404.285156 180.40625 398.492188 Z M 180.40625 398.492188 " fill-opacity="1" fill-rule="evenodd"/><path fill="#174d20" d="M 101.5625 446.289062 C 104.597656 446.289062 107.054688 448.75 107.054688 451.78125 L 107.054688 475.585938 C 107.054688 478.257812 108.199219 481.296875 111.238281 484.746094 C 114.308594 488.230469 119.089844 491.855469 125.691406 495.480469 C 138.894531 502.726562 158.367188 509.425781 182.894531 515.121094 C 231.859375 526.488281 299.78125 533.570312 375 533.570312 C 450.21875 533.570312 518.140625 526.488281 567.105469 515.121094 C 591.632812 509.425781 611.105469 502.726562 624.304688 495.480469 C 630.910156 491.855469 635.691406 488.230469 638.761719 484.746094 C 641.800781 481.296875 642.945312 478.257812 642.945312 475.585938 L 642.945312 451.78125 C 642.945312 448.75 645.402344 446.289062 648.4375 446.289062 C 651.472656 446.289062 653.929688 448.75 653.929688 451.78125 L 653.929688 475.585938 C 653.929688 481.679688 651.246094 487.195312 647.003906 492.011719 C 642.789062 496.789062 636.824219 501.140625 629.59375 505.109375 C 615.121094 513.050781 594.546875 520.027344 569.59375 525.820312 C 519.59375 537.429688 450.796875 544.554688 375 544.554688 C 299.203125 544.554688 230.40625 537.429688 180.40625 525.820312 C 155.453125 520.027344 134.878906 513.050781 120.40625 505.109375 C 113.175781 501.140625 107.210938 496.789062 102.996094 492.011719 C 98.753906 487.195312 96.070312 481.679688 96.070312 475.585938 L 96.070312 451.78125 C 96.070312 448.75 98.527344 446.289062 101.5625 446.289062 Z M 101.5625 446.289062 " fill-opacity="1" fill-rule="evenodd"/><path fill="#174d20" d="M 256.59375 309.566406 C 256.59375 317.65625 250.03125 324.214844 241.945312 324.214844 C 233.855469 324.214844 227.296875 317.65625 227.296875 309.566406 C 227.296875 301.476562 233.855469 294.917969 241.945312 294.917969 C 250.03125 294.917969 256.59375 301.476562 256.59375 309.566406 Z M 256.59375 309.566406 " fill-opacity="1" fill-rule="nonzero"/><path fill="#174d20" d="M 274.902344 282.101562 C 274.902344 296.59375 263.152344 308.347656 248.65625 308.347656 C 234.164062 308.347656 222.414062 296.59375 222.414062 282.101562 C 222.414062 267.605469 234.164062 255.855469 248.65625 255.855469 C 263.152344 255.855469 274.902344 267.605469 274.902344 282.101562 Z M 274.902344 282.101562 " fill-opacity="1" fill-rule="nonzero"/><path fill="#174d20" d="M 366.453125 324.21875 C 366.453125 341.074219 352.792969 354.734375 335.9375 354.734375 C 319.082031 354.734375 305.421875 341.074219 305.421875 324.21875 C 305.421875 307.363281 319.082031 293.703125 335.9375 293.703125 C 352.792969 293.703125 366.453125 307.363281 366.453125 324.21875 Z M 366.453125 324.21875 " fill-opacity="1" fill-rule="nonzero"/><path fill="#174d20" d="M 366.453125 324.21875 C 366.453125 341.074219 352.792969 354.734375 335.9375 354.734375 C 319.082031 354.734375 305.421875 341.074219 305.421875 324.21875 C 305.421875 307.363281 319.082031 293.703125 335.9375 293.703125 C 352.792969 293.703125 366.453125 307.363281 366.453125 324.21875 Z M 366.453125 324.21875 " fill-opacity="1" fill-rule="nonzero"/><path fill="#174d20" d="M 389.648438 269.285156 C 389.648438 283.441406 378.171875 294.917969 364.015625 294.917969 C 349.855469 294.917969 338.378906 283.441406 338.378906 269.285156 C 338.378906 255.125 349.855469 243.648438 364.015625 243.648438 C 378.171875 243.648438 389.648438 255.125 389.648438 269.285156 Z M 389.648438 269.285156 " fill-opacity="1" fill-rule="nonzero"/><path fill="#174d20" d="M 338.378906 238.765625 C 338.378906 252.921875 326.902344 264.402344 312.742188 264.402344 C 298.585938 264.402344 287.109375 252.921875 287.109375 238.765625 C 287.109375 224.609375 298.585938 213.132812 312.742188 213.132812 C 326.902344 213.132812 338.378906 224.609375 338.378906 238.765625 Z M 338.378906 238.765625 " fill-opacity="1" fill-rule="nonzero"/><path fill="#174d20" d="M 501.953125 297.359375 C 501.953125 318.933594 484.464844 336.421875 462.890625 336.421875 C 441.316406 336.421875 423.828125 318.933594 423.828125 297.359375 C 423.828125 275.785156 441.316406 258.296875 462.890625 258.296875 C 484.464844 258.296875 501.953125 275.785156 501.953125 297.359375 Z M 501.953125 297.359375 " fill-opacity="1" fill-rule="nonzero"/><path fill="#174d20" d="M 431.152344 290.644531 C 431.152344 300.421875 423.226562 308.347656 413.453125 308.347656 C 403.675781 308.347656 395.75 300.421875 395.75 290.644531 C 395.75 280.871094 403.675781 272.945312 413.453125 272.945312 C 423.226562 272.945312 431.152344 280.871094 431.152344 290.644531 Z M 431.152344 290.644531 " fill-opacity="1" fill-rule="nonzero"/><path fill="#174d20" d="M 335.9375 280.882812 C 335.9375 292.683594 326.375 302.246094 314.574219 302.246094 C 302.777344 302.246094 293.210938 292.683594 293.210938 280.882812 C 293.210938 269.085938 302.777344 259.523438 314.574219 259.523438 C 326.375 259.523438 335.9375 269.085938 335.9375 280.882812 Z M 335.9375 280.882812 " fill-opacity="1" fill-rule="nonzero"/><path fill="#174d20" d="M 537.351562 304.683594 C 537.351562 320.191406 524.785156 332.761719 509.277344 332.761719 C 493.769531 332.761719 481.203125 320.191406 481.203125 304.683594 C 481.203125 289.179688 493.769531 276.609375 509.277344 276.609375 C 524.785156 276.609375 537.351562 289.179688 537.351562 304.683594 Z M 537.351562 304.683594 " fill-opacity="1" fill-rule="nonzero"/><path fill="#174d20" d="M 539.796875 265.621094 C 539.796875 279.777344 528.316406 291.257812 514.160156 291.257812 C 500.003906 291.257812 488.523438 279.777344 488.523438 265.621094 C 488.523438 251.464844 500.003906 239.988281 514.160156 239.988281 C 528.316406 239.988281 539.796875 251.464844 539.796875 265.621094 Z M 539.796875 265.621094 " fill-opacity="1" fill-rule="nonzero"/><path fill="#174d20" d="M 584.960938 276.609375 C 584.960938 290.765625 573.484375 302.242188 559.328125 302.242188 C 545.167969 302.242188 533.691406 290.765625 533.691406 276.609375 C 533.691406 262.449219 545.167969 250.972656 559.328125 250.972656 C 573.484375 250.972656 584.960938 262.449219 584.960938 276.609375 Z M 584.960938 276.609375 " fill-opacity="1" fill-rule="nonzero"/><path fill="#f5f1dc" d="M 553.222656 293.085938 C 553.222656 304.210938 544.207031 313.230469 533.082031 313.230469 C 521.957031 313.230469 512.9375 304.210938 512.9375 293.085938 C 512.9375 281.960938 521.957031 272.945312 533.082031 272.945312 C 544.207031 272.945312 553.222656 281.960938 553.222656 293.085938 Z M 553.222656 293.085938 " fill-opacity="1" fill-rule="nonzero"/><path fill="#174d20" d="M 533.082031 278.4375 C 524.992188 278.4375 518.433594 284.996094 518.433594 293.085938 C 518.433594 301.179688 524.992188 307.734375 533.082031 307.734375 C 541.171875 307.734375 547.730469 301.179688 547.730469 293.085938 C 547.730469 284.996094 541.171875 278.4375 533.082031 278.4375 Z M 507.445312 293.085938 C 507.445312 278.929688 518.921875 267.453125 533.082031 267.453125 C 547.238281 267.453125 558.714844 278.929688 558.714844 293.085938 C 558.714844 307.246094 547.238281 318.722656 533.082031 318.722656 C 518.921875 318.722656 507.445312 307.246094 507.445312 293.085938 Z M 507.445312 293.085938 " fill-opacity="1" fill-rule="evenodd"/><path fill="#174d20" d="M 300.539062 300.414062 C 300.539062 315.582031 288.238281 327.882812 273.070312 327.882812 C 257.902344 327.882812 245.605469 315.582031 245.605469 300.414062 C 245.605469 285.246094 257.902344 272.949219 273.070312 272.949219 C 288.238281 272.949219 300.539062 285.246094 300.539062 300.414062 Z M 300.539062 300.414062 " fill-opacity="1" fill-rule="nonzero"/><path fill="#174d20" d="M 233.398438 292.476562 C 233.398438 305.960938 222.46875 316.890625 208.984375 316.890625 C 195.5 316.890625 184.570312 305.960938 184.570312 292.476562 C 184.570312 278.992188 195.5 268.0625 208.984375 268.0625 C 222.46875 268.0625 233.398438 278.992188 233.398438 292.476562 Z M 233.398438 292.476562 " fill-opacity="1" fill-rule="nonzero"/><path fill="#174d20" d="M 200.4375 293.699219 C 200.4375 303.136719 192.789062 310.789062 183.351562 310.789062 C 173.910156 310.789062 166.257812 303.136719 166.257812 293.699219 C 166.257812 284.257812 173.910156 276.609375 183.351562 276.609375 C 192.789062 276.609375 200.4375 284.257812 200.4375 293.699219 Z M 200.4375 293.699219 " fill-opacity="1" fill-rule="nonzero"/><path fill="#174d20" d="M 179.84375 204.480469 C 176.191406 206.023438 174.433594 210.1875 175.871094 213.878906 L 216.269531 317.699219 C 217.765625 321.546875 222.144531 323.394531 225.945312 321.785156 L 239.039062 316.25 C 242.84375 314.640625 244.566406 310.207031 242.847656 306.453125 L 196.488281 205.160156 C 194.839844 201.558594 190.625 199.917969 186.972656 201.460938 Z M 179.84375 204.480469 " fill-opacity="1" fill-rule="nonzero"/><path fill="#f5f1dc" d="M 315.1875 314.453125 C 315.1875 322.542969 308.625 329.101562 300.539062 329.101562 C 292.449219 329.101562 285.890625 322.542969 285.890625 314.453125 C 285.890625 306.363281 292.449219 299.804688 300.539062 299.804688 C 308.625 299.804688 315.1875 306.363281 315.1875 314.453125 Z M 315.1875 314.453125 " fill-opacity="1" fill-rule="nonzero"/><path fill="#174d20" d="M 300.539062 305.292969 C 295.480469 305.292969 291.382812 309.394531 291.382812 314.449219 C 291.382812 319.503906 295.480469 323.605469 300.539062 323.605469 C 305.59375 323.605469 309.691406 319.503906 309.691406 314.449219 C 309.691406 309.394531 305.59375 305.292969 300.539062 305.292969 Z M 280.394531 314.449219 C 280.394531 303.324219 289.414062 294.308594 300.539062 294.308594 C 311.660156 294.308594 320.679688 303.324219 320.679688 314.449219 C 320.679688 325.574219 311.660156 334.589844 300.539062 334.589844 C 289.414062 334.589844 280.394531 325.574219 280.394531 314.449219 Z M 280.394531 314.449219 " fill-opacity="1" fill-rule="evenodd"/><path fill="#f5f1dc" d="M 349.367188 276.609375 C 349.367188 284.699219 342.804688 291.257812 334.71875 291.257812 C 326.628906 291.257812 320.070312 284.699219 320.070312 276.609375 C 320.070312 268.519531 326.628906 261.960938 334.71875 261.960938 C 342.804688 261.960938 349.367188 268.519531 349.367188 276.609375 Z M 349.367188 276.609375 " fill-opacity="1" fill-rule="nonzero"/><path fill="#174d20" d="M 334.71875 267.457031 C 329.660156 267.457031 325.5625 271.554688 325.5625 276.609375 C 325.5625 281.667969 329.660156 285.765625 334.71875 285.765625 C 339.773438 285.765625 343.871094 281.667969 343.871094 276.609375 C 343.871094 271.554688 339.773438 267.457031 334.71875 267.457031 Z M 314.574219 276.609375 C 314.574219 265.488281 323.59375 256.46875 334.71875 256.46875 C 345.839844 256.46875 354.859375 265.488281 354.859375 276.609375 C 354.859375 287.734375 345.839844 296.753906 334.71875 296.753906 C 323.59375 296.753906 314.574219 287.734375 314.574219 276.609375 Z M 314.574219 276.609375 " fill-opacity="1" fill-rule="evenodd"/><path fill="#f5f1dc" d="M 199.21875 261.960938 C 199.21875 274.09375 189.382812 283.933594 177.246094 283.933594 C 165.109375 283.933594 155.273438 274.09375 155.273438 261.960938 C 155.273438 249.824219 165.109375 239.988281 177.246094 239.988281 C 189.382812 239.988281 199.21875 249.824219 199.21875 261.960938 Z M 199.21875 261.960938 " fill-opacity="1" fill-rule="nonzero"/><path fill="#174d20" d="M 177.246094 245.480469 C 168.144531 245.480469 160.765625 252.859375 160.765625 261.960938 C 160.765625 271.0625 168.144531 278.4375 177.246094 278.4375 C 186.347656 278.4375 193.726562 271.0625 193.726562 261.960938 C 193.726562 252.859375 186.347656 245.480469 177.246094 245.480469 Z M 149.78125 261.960938 C 149.78125 246.789062 162.078125 234.492188 177.246094 234.492188 C 192.414062 234.492188 204.710938 246.789062 204.710938 261.960938 C 204.710938 277.128906 192.414062 289.425781 177.246094 289.425781 C 162.078125 289.425781 149.78125 277.128906 149.78125 261.960938 Z M 149.78125 261.960938 " fill-opacity="1" fill-rule="evenodd"/><path fill="#f5f1dc" d="M 404.296875 203.367188 C 404.296875 211.457031 397.738281 218.015625 389.648438 218.015625 C 381.558594 218.015625 375 211.457031 375 203.367188 C 375 195.277344 381.558594 188.71875 389.648438 188.71875 C 397.738281 188.71875 404.296875 195.277344 404.296875 203.367188 Z M 404.296875 203.367188 " fill-opacity="1" fill-rule="nonzero"/><path fill="#174d20" d="M 389.648438 194.214844 C 384.59375 194.214844 380.492188 198.3125 380.492188 203.367188 C 380.492188 208.425781 384.59375 212.523438 389.648438 212.523438 C 394.703125 212.523438 398.804688 208.425781 398.804688 203.367188 C 398.804688 198.3125 394.703125 194.214844 389.648438 194.214844 Z M 369.507812 203.367188 C 369.507812 192.246094 378.523438 183.226562 389.648438 183.226562 C 400.773438 183.226562 409.789062 192.246094 409.789062 203.367188 C 409.789062 214.492188 400.773438 223.511719 389.648438 223.511719 C 378.523438 223.511719 369.507812 214.492188 369.507812 203.367188 Z M 369.507812 203.367188 " fill-opacity="1" fill-rule="evenodd"/><path fill="#f5f1dc" d="M 294.285156 182.144531 C 292.84375 178.453125 294.605469 174.289062 298.253906 172.742188 L 305.386719 169.726562 C 309.035156 168.183594 313.25 169.824219 314.898438 173.425781 L 361.261719 274.71875 C 362.976562 278.472656 361.257812 282.90625 357.453125 284.515625 L 344.359375 290.050781 C 340.558594 291.660156 336.179688 289.808594 334.679688 285.960938 L 333.222656 282.210938 C 330.34375 274.8125 316.605469 273.699219 309.128906 276.355469 C 304.695312 277.933594 300.691406 281.785156 298.910156 286.140625 C 295.632812 294.15625 287.757812 299.804688 278.5625 299.804688 C 266.429688 299.804688 256.59375 289.964844 256.59375 277.832031 C 256.59375 272.066406 258.8125 266.820312 262.445312 262.898438 C 262.527344 262.8125 262.5 262.667969 262.390625 262.613281 C 262.3125 262.574219 262.21875 262.597656 262.167969 262.667969 C 255.945312 271.125 245.921875 276.609375 234.617188 276.609375 C 215.742188 276.609375 200.4375 261.308594 200.4375 242.429688 C 200.4375 223.554688 215.742188 208.25 234.617188 208.25 C 246.4375 208.25 263.546875 203.675781 274.308594 198.796875 C 278.203125 197.03125 282.539062 196.046875 287.109375 196.046875 C 292.171875 196.046875 297.589844 190.640625 295.753906 185.921875 Z M 294.285156 182.144531 " fill-opacity="1" fill-rule="evenodd"/><path fill="#174d20" d="M 303.246094 164.667969 C 309.632812 161.964844 317.007812 164.832031 319.894531 171.136719 L 366.253906 272.429688 C 369.261719 279 366.246094 286.757812 359.59375 289.570312 L 346.5 295.109375 C 339.847656 297.921875 332.183594 294.683594 329.5625 287.953125 L 328.101562 284.199219 C 327.734375 283.25 326.089844 281.683594 321.90625 280.914062 C 318.003906 280.195312 313.691406 280.5625 310.96875 281.53125 C 308.023438 282.578125 305.191406 285.292969 303.996094 288.21875 C 299.902344 298.226562 290.066406 305.292969 278.5625 305.292969 C 263.625 305.292969 251.476562 293.371094 251.105469 278.523438 C 246.085938 280.820312 240.503906 282.101562 234.617188 282.101562 C 212.707031 282.101562 194.945312 264.339844 194.945312 242.429688 C 194.945312 220.519531 212.707031 202.753906 234.617188 202.753906 C 245.449219 202.753906 261.777344 198.445312 272.042969 193.789062 C 276.632812 191.707031 281.742188 190.550781 287.109375 190.550781 C 287.8125 190.550781 289.027344 190.078125 289.945312 189.0625 C 290.5625 188.382812 290.617188 187.984375 290.617188 187.867188 L 289.164062 184.136719 C 286.648438 177.675781 289.730469 170.382812 296.117188 167.683594 Z M 290.613281 187.832031 C 290.613281 187.832031 290.617188 187.84375 290.617188 187.859375 C 290.613281 187.84375 290.613281 187.832031 290.613281 187.832031 Z M 309.90625 175.707031 C 309.492188 174.808594 308.441406 174.398438 307.527344 174.785156 L 300.394531 177.800781 C 299.484375 178.1875 299.042969 179.226562 299.402344 180.152344 L 300.871094 183.925781 C 302.808594 188.902344 300.675781 193.578125 298.089844 196.4375 C 295.492188 199.308594 291.46875 201.539062 287.109375 201.539062 C 283.332031 201.539062 279.769531 202.347656 276.578125 203.796875 C 265.316406 208.902344 247.425781 213.742188 234.617188 213.742188 C 218.777344 213.742188 205.933594 226.585938 205.933594 242.429688 C 205.933594 258.273438 218.777344 271.113281 234.617188 271.113281 C 244.101562 271.113281 252.511719 266.519531 257.742188 259.410156 C 259.386719 257.179688 262.386719 256.46875 264.847656 257.695312 C 268.214844 259.378906 269.058594 263.84375 266.472656 266.632812 C 263.746094 269.574219 262.085938 273.5 262.085938 277.828125 C 262.085938 286.929688 269.464844 294.308594 278.5625 294.308594 C 285.453125 294.308594 291.363281 290.082031 293.828125 284.0625 C 296.191406 278.277344 301.363281 273.285156 307.285156 271.179688 C 312.039062 269.488281 318.335938 269.082031 323.894531 270.109375 C 329.167969 271.078125 335.832031 273.769531 338.339844 280.214844 L 339.800781 283.96875 C 340.175781 284.929688 341.269531 285.390625 342.21875 284.988281 L 355.3125 279.453125 C 356.265625 279.050781 356.695312 277.941406 356.265625 277.003906 Z M 309.90625 175.707031 " fill-opacity="1" fill-rule="evenodd"/><path fill="#f5f1dc" d="M 410.398438 297.96875 C 410.398438 314.488281 397.011719 327.878906 380.492188 327.878906 C 363.976562 327.878906 350.585938 314.488281 350.585938 297.96875 C 350.585938 281.453125 363.976562 268.0625 380.492188 268.0625 C 397.011719 268.0625 410.398438 281.453125 410.398438 297.96875 Z M 410.398438 297.96875 " fill-opacity="1" fill-rule="nonzero"/><path fill="#174d20" d="M 380.492188 273.558594 C 367.007812 273.558594 356.078125 284.488281 356.078125 297.972656 C 356.078125 311.457031 367.007812 322.386719 380.492188 322.386719 C 393.976562 322.386719 404.90625 311.457031 404.90625 297.972656 C 404.90625 284.488281 393.976562 273.558594 380.492188 273.558594 Z M 345.09375 297.972656 C 345.09375 278.421875 360.941406 262.574219 380.492188 262.574219 C 400.042969 262.574219 415.894531 278.421875 415.894531 297.972656 C 415.894531 317.523438 400.042969 333.375 380.492188 333.375 C 360.941406 333.375 345.09375 317.523438 345.09375 297.972656 Z M 345.09375 297.972656 " fill-opacity="1" fill-rule="evenodd"/><path fill="#f5f1dc" d="M 479.925781 179.777344 C 485.546875 182.15625 488.234375 188.59375 485.972656 194.261719 L 429.386719 336.089844 C 426.40625 343.558594 417.871094 347.121094 410.464844 343.988281 C 403.0625 340.855469 399.675781 332.253906 402.957031 324.910156 L 465.320312 185.527344 C 467.8125 179.957031 474.304688 177.402344 479.925781 179.777344 Z M 479.925781 179.777344 " fill-opacity="1" fill-rule="nonzero"/><path fill="#174d20" d="M 412.609375 338.929688 C 417.179688 340.863281 422.445312 338.664062 424.285156 334.054688 L 480.871094 192.226562 C 482.027344 189.332031 480.65625 186.050781 477.789062 184.835938 C 474.917969 183.625 471.609375 184.925781 470.335938 187.769531 L 407.972656 327.152344 C 405.945312 331.683594 408.039062 336.996094 412.609375 338.929688 Z M 434.492188 338.125 C 430.371094 348.453125 418.570312 353.378906 408.328125 349.046875 C 398.085938 344.714844 393.40625 332.816406 397.945312 322.667969 L 460.308594 183.28125 C 464.023438 174.980469 473.691406 171.175781 482.066406 174.71875 C 490.441406 178.257812 494.445312 187.851562 491.074219 196.296875 Z M 434.492188 338.125 " fill-opacity="1" fill-rule="evenodd"/><path fill="#f5f1dc" d="M 493.40625 288.816406 C 493.40625 296.90625 486.847656 303.464844 478.757812 303.464844 C 470.671875 303.464844 464.109375 296.90625 464.109375 288.816406 C 464.109375 280.726562 470.671875 274.167969 478.757812 274.167969 C 486.847656 274.167969 493.40625 280.726562 493.40625 288.816406 Z M 493.40625 288.816406 " fill-opacity="1" fill-rule="nonzero"/><path fill="#174d20" d="M 478.757812 279.664062 C 473.703125 279.664062 469.605469 283.761719 469.605469 288.820312 C 469.605469 293.875 473.703125 297.972656 478.757812 297.972656 C 483.816406 297.972656 487.914062 293.875 487.914062 288.820312 C 487.914062 283.761719 483.816406 279.664062 478.757812 279.664062 Z M 458.617188 288.820312 C 458.617188 277.695312 467.636719 268.675781 478.757812 268.675781 C 489.882812 268.675781 498.902344 277.695312 498.902344 288.820312 C 498.902344 299.941406 489.882812 308.960938 478.757812 308.960938 C 467.636719 308.960938 458.617188 299.941406 458.617188 288.820312 Z M 458.617188 288.820312 " fill-opacity="1" fill-rule="evenodd"/><path fill="#f5f1dc" d="M 466.554688 224.730469 C 466.554688 241.714844 456.199219 256.277344 441.464844 262.457031 C 438.089844 280.25 422.457031 293.703125 403.6875 293.703125 C 403.617188 293.703125 403.546875 293.703125 403.476562 293.703125 C 399.820312 311.128906 384.363281 324.21875 365.84375 324.21875 C 347.574219 324.21875 332.28125 311.476562 328.363281 294.394531 C 309.648438 284.613281 296.875 265.015625 296.875 242.433594 C 296.875 210.074219 323.109375 183.839844 355.46875 183.839844 C 370.347656 183.839844 383.933594 189.386719 394.265625 198.523438 C 401.765625 189.546875 413.046875 183.835938 425.660156 183.835938 C 448.246094 183.835938 466.554688 202.144531 466.554688 224.730469 Z M 466.554688 224.730469 " fill-opacity="1" fill-rule="evenodd"/><path fill="#174d20" d="M 393.769531 191.046875 C 402.078125 183.179688 413.304688 178.34375 425.660156 178.34375 C 451.277344 178.34375 472.046875 199.113281 472.046875 224.730469 C 472.046875 242.972656 461.515625 258.742188 446.222656 266.320312 C 441.644531 283.960938 426.386719 297.296875 407.757812 299.007812 C 402.140625 316.808594 385.503906 329.710938 365.84375 329.710938 C 345.84375 329.710938 328.972656 316.351562 323.648438 298.074219 C 304.378906 287.03125 291.382812 266.253906 291.382812 242.433594 C 291.382812 207.039062 320.074219 178.347656 355.46875 178.347656 C 369.824219 178.347656 383.085938 183.074219 393.769531 191.046875 Z M 425.660156 189.332031 C 414.742188 189.332031 404.984375 194.265625 398.480469 202.046875 C 397.527344 203.183594 396.160156 203.890625 394.679688 204 C 393.199219 204.113281 391.738281 203.621094 390.628906 202.640625 C 381.257812 194.355469 368.957031 189.332031 355.46875 189.332031 C 326.144531 189.332031 302.367188 213.109375 302.367188 242.433594 C 302.367188 262.890625 313.933594 280.652344 330.910156 289.527344 C 332.332031 290.269531 333.359375 291.601562 333.71875 293.167969 C 337.074219 307.808594 350.191406 318.726562 365.84375 318.726562 C 381.710938 318.726562 394.96875 307.511719 398.101562 292.574219 C 398.636719 290.019531 400.898438 288.195312 403.507812 288.207031 C 403.566406 288.207031 403.625 288.207031 403.6875 288.207031 C 419.769531 288.207031 433.175781 276.679688 436.066406 261.433594 C 436.410156 259.625 437.640625 258.105469 439.339844 257.394531 C 452.109375 252.039062 461.058594 239.425781 461.058594 224.730469 C 461.058594 205.179688 445.210938 189.332031 425.660156 189.332031 Z M 425.660156 189.332031 " fill-opacity="1" fill-rule="evenodd"/><path fill="#f5f1dc" d="M 555.609375 178.46875 C 558.679688 180.980469 559.191406 185.484375 556.757812 188.621094 L 531.707031 220.941406 C 551.851562 226.484375 566.648438 244.9375 566.648438 266.847656 C 566.648438 284.976562 556.519531 300.738281 541.609375 308.777344 C 537.15625 340.261719 509.621094 364.503906 476.320312 364.503906 C 439.914062 364.503906 410.398438 335.535156 410.398438 299.804688 C 410.398438 276.8125 422.621094 256.621094 441.039062 245.144531 C 440.957031 244.25 440.917969 243.34375 440.917969 242.429688 C 440.917969 225.574219 454.582031 211.914062 471.4375 211.914062 C 481.609375 211.914062 490.625 216.894531 496.167969 224.550781 L 539.464844 174.460938 C 542.058594 171.457031 546.574219 171.066406 549.644531 173.582031 Z M 555.609375 178.46875 " fill-opacity="1" fill-rule="evenodd"/><path fill="#174d20" d="M 535.308594 170.867188 C 539.851562 165.613281 547.75 164.929688 553.125 169.332031 L 559.089844 174.214844 C 564.464844 178.617188 565.355469 186.496094 561.101562 191.984375 L 540.671875 218.335938 C 559.214844 226.617188 572.144531 245.21875 572.144531 266.84375 C 572.144531 286.085938 561.910156 302.925781 546.613281 312.234375 C 540.628906 345.144531 511.371094 369.996094 476.320312 369.996094 C 436.976562 369.996094 404.90625 338.664062 404.90625 299.804688 C 404.90625 275.953125 417.007812 254.921875 435.425781 242.253906 C 435.519531 222.449219 451.605469 206.417969 471.4375 206.417969 C 480.988281 206.417969 489.675781 210.144531 496.117188 216.207031 Z M 546.164062 177.832031 C 545.398438 177.203125 544.269531 177.300781 543.621094 178.050781 L 500.324219 228.140625 C 499.226562 229.410156 497.609375 230.109375 495.933594 230.035156 C 494.253906 229.964844 492.703125 229.128906 491.71875 227.769531 C 487.164062 221.480469 479.777344 217.40625 471.4375 217.40625 C 457.613281 217.40625 446.410156 228.609375 446.410156 242.429688 C 446.410156 243.183594 446.445312 243.929688 446.507812 244.660156 C 446.691406 246.722656 445.699219 248.710938 443.941406 249.808594 C 427.039062 260.335938 415.894531 278.816406 415.894531 299.804688 C 415.894531 332.40625 442.847656 359.007812 476.320312 359.007812 C 506.925781 359.007812 532.105469 336.746094 536.167969 308.007812 C 536.414062 306.277344 537.464844 304.769531 539 303.941406 C 552.203125 296.820312 561.15625 282.875 561.15625 266.84375 C 561.15625 247.472656 548.070312 231.140625 530.246094 226.238281 C 528.480469 225.75 527.070312 224.414062 526.492188 222.675781 C 525.914062 220.9375 526.242188 219.023438 527.363281 217.574219 L 552.417969 185.253906 C 553.023438 184.472656 552.898438 183.34375 552.128906 182.714844 Z M 546.164062 177.832031 " fill-opacity="1" fill-rule="evenodd"/><path fill="#f5f1dc" d="M 375.433594 490.667969 C 512.289062 490.667969 623.234375 464.710938 623.234375 432.683594 L 583.742188 279.660156 C 583.742188 306.964844 488.644531 329.097656 371.339844 329.097656 C 254.03125 329.097656 158.9375 306.964844 158.9375 279.660156 L 127.628906 432.683594 C 119.082031 461.980469 238.574219 490.667969 375.433594 490.667969 Z M 375.433594 490.667969 " fill-opacity="1" fill-rule="nonzero"/><path fill="#174d20" d="M 583.050781 274.210938 C 585.796875 273.859375 588.371094 275.609375 589.0625 278.289062 L 628.558594 431.3125 C 628.671875 431.761719 628.730469 432.222656 628.730469 432.6875 C 628.730469 438.386719 626.238281 443.527344 622.339844 447.988281 C 618.46875 452.414062 613.007812 456.417969 606.425781 460.0625 C 593.25 467.351562 574.546875 473.738281 551.910156 479.035156 C 506.546875 489.648438 444.15625 496.164062 375.433594 496.164062 C 306.679688 496.164062 242.15625 488.960938 195.746094 478.011719 C 172.601562 472.550781 153.613281 466.078125 140.8125 458.898438 C 134.4375 455.320312 129.199219 451.351562 125.832031 446.90625 C 122.402344 442.371094 120.730469 437.035156 122.292969 431.386719 L 153.558594 278.558594 C 154.121094 275.796875 156.6875 273.910156 159.492188 274.195312 C 162.296875 274.480469 164.433594 276.839844 164.433594 279.660156 C 164.433594 281.367188 165.152344 283.460938 167.378906 285.996094 C 169.640625 288.566406 173.21875 291.304688 178.28125 294.089844 C 188.394531 299.65625 203.390625 304.84375 222.394531 309.269531 C 260.316406 318.09375 312.980469 323.605469 371.339844 323.605469 C 429.703125 323.605469 482.367188 318.09375 520.289062 309.269531 C 539.292969 304.84375 554.289062 299.65625 564.402344 294.089844 C 569.460938 291.304688 573.042969 288.566406 575.304688 285.996094 C 577.53125 283.460938 578.25 281.367188 578.25 279.660156 C 578.25 276.894531 580.308594 274.558594 583.050781 274.210938 Z M 584.128906 303.132812 C 583.1875 299.484375 578.519531 298.125 575.402344 300.246094 C 573.632812 301.445312 571.722656 302.601562 569.699219 303.714844 C 558.316406 309.980469 542.210938 315.445312 522.777344 319.96875 C 483.824219 329.035156 430.285156 334.589844 371.339844 334.589844 C 312.398438 334.589844 258.859375 329.035156 219.902344 319.96875 C 200.472656 315.445312 184.363281 309.980469 172.980469 303.714844 C 171.316406 302.800781 169.730469 301.851562 168.234375 300.878906 C 165.027344 298.785156 160.3125 300.351562 159.546875 304.105469 L 133.015625 433.785156 C 132.984375 433.933594 132.949219 434.082031 132.90625 434.226562 C 132.441406 435.8125 132.640625 437.695312 134.59375 440.273438 C 136.660156 443 140.421875 446.082031 146.1875 449.316406 C 157.664062 455.753906 175.5 461.945312 198.269531 467.316406 C 243.683594 478.035156 307.335938 485.175781 375.433594 485.175781 C 443.570312 485.175781 505.082031 478.710938 549.40625 468.335938 C 571.613281 463.140625 589.203125 457.035156 601.105469 450.449219 C 607.058594 447.15625 611.335938 443.878906 614.070312 440.753906 C 616.535156 437.9375 617.5625 435.460938 617.722656 433.296875 Z M 584.128906 303.132812 " fill-opacity="1" fill-rule="evenodd"/><path fill="#174d20" d="M 412.625 391.671875 C 412.625 396.351562 408.835938 400.140625 404.160156 400.140625 C 399.480469 400.140625 395.691406 396.351562 395.691406 391.671875 C 395.691406 386.996094 399.480469 383.207031 404.160156 383.207031 C 408.835938 383.207031 412.625 386.996094 412.625 391.671875 Z M 412.625 391.671875 " fill-opacity="1" fill-rule="nonzero"/><path fill="#174d20" d="M 382.992188 381.515625 C 382.992188 386.191406 379.203125 389.980469 374.523438 389.980469 C 369.851562 389.980469 366.058594 386.191406 366.058594 381.515625 C 366.058594 376.839844 369.851562 373.046875 374.523438 373.046875 C 379.203125 373.046875 382.992188 376.839844 382.992188 381.515625 Z M 382.992188 381.515625 " fill-opacity="1" fill-rule="nonzero"/><path fill="#174d20" d="M 351.652344 393.367188 C 351.652344 398.042969 347.859375 401.832031 343.183594 401.832031 C 338.507812 401.832031 334.71875 398.042969 334.71875 393.367188 C 334.71875 388.691406 338.507812 384.898438 343.183594 384.898438 C 347.859375 384.898438 351.652344 388.691406 351.652344 393.367188 Z M 351.652344 393.367188 " fill-opacity="1" fill-rule="nonzero"/><path fill="#174d20" d="M 398.21875 413.691406 C 405.964844 424.015625 387.015625 445.242188 376.429688 445.242188 C 365 445.242188 340.351562 421.023438 354.746094 410.863281 C 369.140625 400.699219 390.597656 403.53125 398.21875 413.691406 Z M 398.21875 413.691406 " fill-opacity="1" fill-rule="nonzero"/><path fill="#174d20" d="M 379.5 399.179688 C 388.542969 399.96875 397.542969 403.632812 402.613281 410.390625 C 405.863281 414.722656 406 419.859375 404.902344 424.292969 C 403.808594 428.699219 401.390625 433.003906 398.546875 436.691406 C 395.675781 440.40625 392.148438 443.792969 388.492188 446.292969 C 384.980469 448.695312 380.703125 450.730469 376.429688 450.730469 C 371.953125 450.730469 367.164062 448.507812 363.175781 445.882812 C 359.003906 443.140625 354.863281 439.398438 351.59375 435.265625 C 348.390625 431.214844 345.644531 426.300781 345.003906 421.203125 C 344.308594 415.667969 346.179688 410.179688 351.578125 406.371094 C 360 400.425781 370.304688 398.378906 379.5 399.179688 Z M 378.546875 410.125 C 371.507812 409.511719 363.886719 411.128906 357.914062 415.347656 C 356.113281 416.617188 355.667969 417.96875 355.902344 419.832031 C 356.191406 422.132812 357.625 425.175781 360.210938 428.453125 C 362.734375 431.644531 366 434.59375 369.214844 436.707031 C 372.613281 438.941406 375.191406 439.746094 376.429688 439.746094 C 377.453125 439.746094 379.507812 439.128906 382.285156 437.226562 C 384.921875 435.425781 387.625 432.859375 389.847656 429.976562 C 392.09375 427.066406 393.625 424.128906 394.238281 421.652344 C 394.84375 419.203125 394.445312 417.8125 393.824219 416.984375 C 391.269531 413.582031 385.734375 410.75 378.546875 410.125 Z M 378.546875 410.125 " fill-opacity="1" fill-rule="evenodd"/><path fill="#f5f1dc" d="M 428.710938 297.363281 C 428.710938 305.453125 422.152344 312.011719 414.0625 312.011719 C 405.972656 312.011719 399.414062 305.453125 399.414062 297.363281 C 399.414062 289.273438 405.972656 282.714844 414.0625 282.714844 C 422.152344 282.714844 428.710938 289.273438 428.710938 297.363281 Z M 428.710938 297.363281 " fill-opacity="1" fill-rule="nonzero"/><path fill="#174d20" d="M 414.0625 288.207031 C 409.007812 288.207031 404.90625 292.308594 404.90625 297.363281 C 404.90625 302.417969 409.007812 306.519531 414.0625 306.519531 C 419.117188 306.519531 423.21875 302.417969 423.21875 297.363281 C 423.21875 292.308594 419.117188 288.207031 414.0625 288.207031 Z M 393.921875 297.363281 C 393.921875 286.238281 402.9375 277.222656 414.0625 277.222656 C 425.1875 277.222656 434.203125 286.238281 434.203125 297.363281 C 434.203125 308.488281 425.1875 317.503906 414.0625 317.503906 C 402.9375 317.503906 393.921875 308.488281 393.921875 297.363281 Z M 393.921875 297.363281 " fill-opacity="1" fill-rule="evenodd"/><path fill="#f5f1dc" d="M 558.105469 230.226562 C 558.105469 238.3125 551.546875 244.875 543.457031 244.875 C 535.367188 244.875 528.808594 238.3125 528.808594 230.226562 C 528.808594 222.136719 535.367188 215.578125 543.457031 215.578125 C 551.546875 215.578125 558.105469 222.136719 558.105469 230.226562 Z M 558.105469 230.226562 " fill-opacity="1" fill-rule="nonzero"/><path fill="#174d20" d="M 543.457031 221.070312 C 538.402344 221.070312 534.300781 225.167969 534.300781 230.226562 C 534.300781 235.28125 538.402344 239.378906 543.457031 239.378906 C 548.511719 239.378906 552.613281 235.28125 552.613281 230.226562 C 552.613281 225.167969 548.511719 221.070312 543.457031 221.070312 Z M 523.316406 230.226562 C 523.316406 219.101562 532.332031 210.082031 543.457031 210.082031 C 554.582031 210.082031 563.597656 219.101562 563.597656 230.226562 C 563.597656 241.347656 554.582031 250.367188 543.457031 250.367188 C 532.332031 250.367188 523.316406 241.347656 523.316406 230.226562 Z M 523.316406 230.226562 " fill-opacity="1" fill-rule="evenodd"/><path fill="#f5f1dc" d="M 714.355469 561.035156 C 714.355469 563.703125 714.148438 566.304688 713.625 568.804688 C 713.347656 570.140625 712.921875 571.554688 711.671875 572.101562 C 705.410156 574.847656 679.75 576.90625 649.046875 576.90625 C 613.792969 576.90625 585.1875 574.191406 584.960938 570.839844 C 584.960938 570.816406 584.941406 570.800781 584.917969 570.800781 C 584.902344 570.800781 584.890625 570.792969 584.882812 570.777344 C 583.367188 567.648438 582.519531 564.136719 582.519531 560.425781 C 582.519531 547.277344 593.175781 536.621094 606.324219 536.621094 C 612.960938 536.621094 618.960938 539.335938 623.277344 543.71875 C 624.570312 545.027344 626.570312 545.429688 628.3125 544.839844 C 630.03125 544.261719 631.875 543.945312 633.789062 543.945312 C 636.410156 543.945312 638.890625 544.535156 641.109375 545.589844 C 643.507812 546.726562 646.789062 545.992188 648.09375 543.679688 C 654.164062 532.910156 665.710938 525.632812 678.953125 525.632812 C 698.507812 525.632812 714.355469 541.484375 714.355469 561.035156 Z M 714.355469 561.035156 " fill-opacity="1" fill-rule="evenodd"/><path fill="#174d20" d="M 643.484375 540.621094 C 643.503906 540.625 643.519531 540.613281 643.527344 540.597656 C 650.589844 528.382812 663.804688 520.140625 678.953125 520.140625 C 701.539062 520.140625 719.847656 538.449219 719.847656 561.035156 C 719.847656 563.980469 719.621094 566.96875 719.003906 569.929688 C 718.847656 570.679688 718.558594 571.957031 717.917969 573.222656 C 717.238281 574.574219 716.007812 576.199219 713.878906 577.132812 C 711.589844 578.136719 708.175781 578.859375 704.398438 579.441406 C 700.449219 580.046875 695.550781 580.574219 689.949219 581.007812 C 678.746094 581.878906 664.507812 582.398438 649.046875 582.398438 C 631.304688 582.398438 615.160156 581.714844 603.351562 580.597656 C 597.480469 580.042969 592.515625 579.363281 588.921875 578.5625 C 587.164062 578.171875 585.457031 577.695312 584.070312 577.066406 C 583.390625 576.761719 582.503906 576.292969 581.691406 575.574219 C 581.183594 575.125 580.464844 574.355469 579.980469 573.257812 C 579.96875 573.230469 579.953125 573.199219 579.9375 573.171875 C 578.070312 569.308594 577.027344 564.980469 577.027344 560.425781 C 577.027344 544.246094 590.144531 531.128906 606.324219 531.128906 C 611.796875 531.128906 616.921875 532.632812 621.304688 535.246094 C 625.023438 537.460938 629.460938 538.453125 633.789062 538.453125 C 637.21875 538.453125 640.484375 539.222656 643.410156 540.601562 C 643.433594 540.613281 643.457031 540.621094 643.484375 540.621094 Z M 678.953125 531.128906 C 667.773438 531.128906 658.015625 537.261719 652.878906 546.378906 C 649.894531 551.671875 643.242188 552.683594 638.753906 550.550781 C 637.253906 549.839844 635.578125 549.4375 633.789062 549.4375 C 632.480469 549.4375 631.230469 549.652344 630.070312 550.046875 C 626.496094 551.253906 622.25 550.5 619.367188 547.570312 C 616.039062 544.195312 611.429688 542.113281 606.324219 542.113281 C 596.210938 542.113281 588.011719 550.3125 588.011719 560.425781 C 588.011719 562.167969 588.253906 563.847656 588.703125 565.4375 C 589.050781 566.660156 590.0625 567.5625 591.304688 567.839844 C 594.238281 568.492188 598.675781 569.121094 604.386719 569.660156 C 615.753906 570.738281 631.539062 571.410156 649.046875 571.410156 C 664.289062 571.410156 678.234375 570.902344 689.101562 570.054688 C 694.539062 569.632812 699.144531 569.132812 702.730469 568.582031 C 706.171875 568.054688 708.792969 565.308594 708.855469 561.828125 C 708.859375 561.566406 708.863281 561.300781 708.863281 561.035156 C 708.863281 544.519531 695.472656 531.128906 678.953125 531.128906 Z M 588.550781 567.039062 C 588.550781 567.035156 588.550781 567.035156 588.550781 567.039062 Z M 588.550781 567.039062 " fill-opacity="1" fill-rule="evenodd"/><path fill="#f5f1dc" d="M 177.636719 596.4375 C 177.601562 596.4375 177.570312 596.453125 177.554688 596.484375 C 174.949219 601.230469 144.328125 604.980469 106.933594 604.980469 C 67.832031 604.980469 36.132812 600.882812 36.132812 595.824219 C 36.132812 595.769531 36.132812 595.710938 36.136719 595.652344 C 36.140625 595.421875 36.144531 595.1875 36.074219 594.96875 C 35.320312 592.53125 34.914062 589.949219 34.914062 587.28125 C 34.914062 577.683594 40.164062 569.234375 48.117188 564.324219 C 53.648438 560.910156 58.441406 555.789062 60.863281 549.757812 C 66.546875 535.617188 80.386719 525.632812 96.558594 525.632812 C 107.96875 525.632812 118.21875 530.605469 125.261719 538.5 C 129.660156 543.429688 139.390625 545.164062 145.996094 545.164062 C 155.433594 545.164062 163.085938 552.816406 163.085938 562.257812 C 163.085938 566.589844 164.617188 571.339844 167.886719 574.191406 C 173.921875 579.449219 177.734375 587.191406 177.734375 595.824219 C 177.734375 596 177.734375 596.171875 177.730469 596.34375 C 177.726562 596.394531 177.6875 596.4375 177.636719 596.4375 Z M 177.636719 596.4375 " fill-opacity="1" fill-rule="evenodd"/><path fill="#174d20" d="M 55.765625 547.710938 C 62.257812 531.558594 78.066406 520.140625 96.558594 520.140625 C 109.601562 520.140625 121.320312 525.832031 129.363281 534.84375 C 130.53125 536.15625 132.867188 537.449219 136.261719 538.386719 C 139.527344 539.285156 143.113281 539.671875 145.996094 539.671875 C 158.46875 539.671875 168.578125 549.785156 168.578125 562.257812 C 168.578125 565.558594 169.785156 568.558594 171.496094 570.050781 C 178.675781 576.304688 183.226562 585.535156 183.226562 595.824219 C 183.226562 596.03125 183.226562 596.238281 183.222656 596.441406 C 183.195312 597.980469 182.550781 599.355469 181.53125 600.347656 C 180.328125 601.78125 178.757812 602.648438 177.683594 603.164062 C 176.089844 603.929688 174.167969 604.566406 172.09375 605.121094 C 167.917969 606.234375 162.390625 607.1875 155.949219 607.964844 C 143.019531 609.53125 125.785156 610.472656 106.933594 610.472656 C 87.222656 610.472656 69.277344 609.441406 56.164062 607.746094 C 49.648438 606.902344 44.109375 605.871094 40.089844 604.640625 C 38.121094 604.039062 36.1875 603.292969 34.636719 602.316406 C 33.425781 601.550781 30.710938 599.546875 30.640625 595.96875 C 29.84375 593.195312 29.417969 590.28125 29.417969 587.28125 C 29.417969 575.59375 35.820312 565.460938 45.230469 559.652344 C 49.953125 556.734375 53.859375 552.460938 55.765625 547.710938 Z M 96.558594 531.128906 C 82.703125 531.128906 70.835938 539.675781 65.960938 551.808594 C 63.023438 559.117188 57.339844 565.085938 51.003906 569 C 44.503906 573.011719 40.40625 579.773438 40.40625 587.28125 C 40.40625 589.386719 40.726562 591.421875 41.320312 593.339844 C 41.332031 593.375 41.34375 593.410156 41.351562 593.445312 C 41.816406 593.640625 42.453125 593.875 43.304688 594.136719 C 46.449219 595.097656 51.277344 596.035156 57.574219 596.851562 C 70.089844 598.46875 87.542969 599.488281 106.933594 599.488281 C 125.472656 599.488281 142.25 598.558594 154.628906 597.058594 C 160.84375 596.308594 165.796875 595.429688 169.261719 594.507812 C 170.480469 594.183594 171.429688 593.875 172.136719 593.597656 C 171.558594 587.523438 168.640625 582.132812 164.277344 578.332031 C 159.449219 574.125 157.59375 567.625 157.59375 562.257812 C 157.59375 555.851562 152.402344 550.660156 145.996094 550.660156 C 142.273438 550.660156 137.691406 550.175781 133.339844 548.976562 C 129.117188 547.8125 124.390625 545.777344 121.164062 542.160156 C 115.121094 535.382812 106.339844 531.128906 96.558594 531.128906 Z M 173.4375 592.972656 C 173.4375 592.972656 173.425781 592.984375 173.394531 593.007812 C 173.421875 592.984375 173.4375 592.972656 173.4375 592.972656 Z M 40.359375 592.921875 C 40.363281 592.921875 40.402344 592.949219 40.46875 593 C 40.386719 592.949219 40.355469 592.921875 40.359375 592.921875 Z M 40.359375 592.921875 " fill-opacity="1" fill-rule="evenodd"/></svg>