<svg width="196" height="196" viewBox="0 0 196 196" fill="none" xmlns="http://www.w3.org/2000/svg">
<g id="male">
<path id="Vector" d="M62.747 40.1765C62.747 40.7366 62.293 41.1905 61.733 41.1905C61.173 41.1905 60.875 40.9706 60.875 40.4105C60.875 39.8505 61.329 39.3965 61.889 39.3965C62.449 39.3965 62.747 39.6165 62.747 40.1765Z" fill="#888C85" stroke="#888C85" stroke-width="0.156" stroke-miterlimit="10"/>
<path id="Vector_2" d="M58.5322 35.9635C58.5322 36.5235 58.0782 36.9775 57.5182 36.9775C56.9581 36.9775 56.6602 36.7575 56.6602 36.1975C56.6602 35.6375 57.1141 35.1835 57.6742 35.1835C58.2342 35.1835 58.5322 35.4035 58.5322 35.9635Z" fill="#888C85" stroke="#888C85" stroke-width="0.156" stroke-miterlimit="10"/>
<path id="Vector_3" fill-rule="evenodd" clip-rule="evenodd" d="M82.5428 130.873L83.2027 131.576C87.736 136.406 96.5376 139.755 105.985 141.08C115.417 142.403 128.148 141.663 134.499 138.62L135.369 138.203L136.202 139.943L135.332 140.361C128.5 143.634 115.337 144.339 105.717 142.991C96.1132 141.643 86.9358 137.702 81.9531 132.392L82.5428 130.873Z" fill="#888C85" stroke="#888C85" stroke-width="0.156" stroke-miterlimit="10"/>
<path id="Vector_4" fill-rule="evenodd" clip-rule="evenodd" d="M57.5207 56.5575L58.0664 56.556C58.94 60.4934 59.2208 67.5121 59.4876 71.3965C59.6795 74.1967 60.3815 76.2544 60.369 78.1654C60.3643 78.8954 59.9322 78.8221 59.9415 79.3229C60.0149 83.6831 59.6061 87.9793 59.2037 92.2178V92.2225C58.7981 96.4782 58.3987 100.676 58.4689 104.921C58.5485 109.812 61.1755 116.485 63.7526 120.749C65.063 122.916 66.1238 125.433 66.1067 128.118C66.0318 138.991 65.6246 149.659 64.7105 158.794C63.7994 167.901 62.3767 175.58 60.227 180.416C59.4689 182.121 57.7544 182.998 56.1819 183.346C55.3099 183.539 54.3786 183.804 53.6235 184.111C53.2445 184.266 52.9309 184.422 52.6985 184.573C52.4504 184.734 52.3615 184.844 52.3412 184.879C52.1759 185.169 51.92 185.873 51.7843 186.629C51.7188 186.999 51.6876 187.342 51.7016 187.623C51.7125 187.84 51.7453 187.968 51.7718 188.035C51.8233 188.061 51.906 188.097 52.0308 188.139C52.3069 188.231 52.7031 188.323 53.207 188.405C54.2101 188.567 55.5408 188.676 56.9916 188.721C59.9119 188.812 63.1583 188.637 65.0256 188.169C65.478 188.057 65.8664 187.678 66.1035 187.074C67.2611 184.14 70.2968 176.282 72.3966 169.428C72.5666 168.872 72.7601 168.251 72.9707 167.569C75.5447 159.262 81.749 140.625 82.9487 124.922C82.9861 124.429 83.1468 124.104 83.5069 124.338C83.7035 124.466 83.8173 124.688 83.8017 124.922C82.7222 140.976 77.2248 159.652 74.6133 168.07C74.4012 168.755 74.2077 169.377 74.0377 169.931C71.9177 176.853 68.8601 184.763 67.701 187.704C67.3313 188.642 66.5965 189.546 65.4421 189.835C63.3408 190.359 59.9025 190.529 56.9385 190.437C55.4456 190.39 54.0354 190.277 52.9325 190.099C52.3849 190.01 51.8873 189.901 51.4863 189.766C51.2851 189.699 51.0885 189.62 50.9123 189.52C50.7469 189.426 50.5394 189.283 50.385 189.061C50.0964 188.645 50.0075 188.136 49.9856 187.706C49.9638 187.255 50.0137 186.774 50.0933 186.327C50.2508 185.447 50.5566 184.539 50.8499 184.027C51.0683 183.645 51.4239 183.353 51.764 183.133C52.1181 182.902 52.5378 182.699 52.9746 182.522C53.8497 182.166 54.8793 181.876 55.8091 181.67C57.1242 181.38 58.2131 180.715 58.6577 179.718C60.6888 175.152 62.0928 167.712 63.0023 158.622C63.9086 149.56 64.3142 138.951 64.3891 128.107C64.4047 125.875 63.5171 123.678 62.2831 121.636C59.628 117.243 56.8387 110.265 56.7513 104.949C56.6811 100.608 57.0867 96.3284 57.4892 92.1024L57.4923 92.0603C57.8979 87.8046 58.2957 83.6035 58.224 79.3525C58.2146 78.7972 58.2193 78.1295 58.224 77.3698C58.2365 75.4697 58.2536 72.9971 58.0664 70.2671C57.8059 66.4607 57.1507 60.0488 55.5813 56.5575L55.2288 55.7744L57.5207 56.5575Z" fill="#888C85"/>
<path id="Vector_5" d="M51.7266 188.005C51.7266 188.005 51.7266 188.005 51.7297 188.008M57.5207 56.5575L58.0664 56.556C58.94 60.4934 59.2208 67.5121 59.4876 71.3965C59.6795 74.1967 60.3815 76.2544 60.369 78.1654C60.3643 78.8954 59.9322 78.8221 59.9415 79.3229C60.0149 83.6831 59.6061 87.9793 59.2037 92.2178V92.2225C58.7981 96.4782 58.3987 100.676 58.4689 104.921C58.5485 109.812 61.1755 116.485 63.7526 120.749C65.063 122.916 66.1238 125.433 66.1067 128.118C66.0318 138.991 65.6246 149.659 64.7105 158.794C63.7994 167.901 62.3767 175.58 60.227 180.416C59.4689 182.121 57.7544 182.998 56.1819 183.346C55.3099 183.539 54.3786 183.804 53.6235 184.111C53.2445 184.266 52.9309 184.422 52.6985 184.573C52.4504 184.734 52.3615 184.844 52.3412 184.879C52.1759 185.169 51.92 185.873 51.7843 186.629C51.7188 186.999 51.6876 187.342 51.7016 187.623C51.7125 187.84 51.7453 187.968 51.7718 188.035C51.8233 188.061 51.906 188.097 52.0308 188.139C52.3069 188.231 52.7031 188.323 53.207 188.405C54.2101 188.567 55.5408 188.676 56.9916 188.721C59.9119 188.812 63.1583 188.637 65.0256 188.169C65.478 188.057 65.8664 187.678 66.1035 187.074C67.2611 184.14 70.2968 176.282 72.3966 169.428C72.5666 168.872 72.7601 168.251 72.9707 167.569C75.5447 159.262 81.749 140.625 82.9487 124.922C82.9861 124.429 83.1468 124.104 83.5069 124.338C83.7035 124.466 83.8173 124.688 83.8017 124.922C82.7222 140.976 77.2248 159.652 74.6133 168.07C74.4012 168.755 74.2077 169.377 74.0377 169.931C71.9177 176.853 68.8601 184.763 67.701 187.704C67.3313 188.642 66.5965 189.546 65.4421 189.835C63.3408 190.359 59.9025 190.529 56.9385 190.437C55.4456 190.39 54.0354 190.277 52.9325 190.099C52.3849 190.01 51.8873 189.901 51.4863 189.766C51.2851 189.699 51.0885 189.62 50.9123 189.52C50.7469 189.426 50.5394 189.283 50.385 189.061C50.0964 188.645 50.0075 188.136 49.9856 187.706C49.9638 187.255 50.0137 186.774 50.0933 186.327C50.2508 185.447 50.5566 184.539 50.8499 184.027C51.0683 183.645 51.4239 183.353 51.764 183.133C52.1181 182.902 52.5378 182.699 52.9746 182.522C53.8497 182.166 54.8793 181.876 55.8091 181.67C57.1242 181.38 58.2131 180.715 58.6577 179.718C60.6888 175.152 62.0928 167.712 63.0023 158.622C63.9086 149.56 64.3142 138.951 64.3891 128.107C64.4047 125.875 63.5171 123.678 62.2831 121.636C59.628 117.243 56.8387 110.265 56.7513 104.949C56.6811 100.608 57.0867 96.3284 57.4892 92.1024L57.4923 92.0603C57.8979 87.8046 58.2957 83.6035 58.224 79.3525C58.2146 78.7972 58.2193 78.1295 58.224 77.3698C58.2365 75.4697 58.2536 72.9971 58.0664 70.2671C57.8059 66.4607 57.1507 60.0488 55.5813 56.5575L55.2288 55.7744L57.5207 56.5575Z" stroke="#888C85" stroke-width="0.156" stroke-miterlimit="10"/>
<path id="Vector_6" fill-rule="evenodd" clip-rule="evenodd" d="M56.3376 185.463C56.4842 185.655 56.4468 185.931 56.2533 186.076L56.0739 186.21C55.57 186.589 55.492 187.195 55.3329 187.77C55.1738 188.346 55.1738 188.895 55.2159 189.201L55.3002 189.809L53.9149 189.957L53.8306 189.349C53.7698 188.906 53.776 188.21 53.9773 187.482C54.1785 186.753 54.7464 186.121 55.5451 185.521L55.7307 185.38C55.921 185.237 56.1925 185.274 56.3376 185.463Z" fill="#888C85" stroke="#888C85" stroke-width="0.156" stroke-miterlimit="10"/>
<path id="Vector_7" fill-rule="evenodd" clip-rule="evenodd" d="M74.5002 185.983C74.6078 186.121 74.5813 186.32 74.4393 186.425L74.313 186.519C73.9495 186.787 73.8918 187.216 73.7779 187.625C73.664 188.033 73.6625 188.423 73.6937 188.64L73.7545 189.072L72.753 189.177L72.6921 188.745C72.6485 188.431 72.6531 187.937 72.7982 187.42C72.9433 186.902 73.3536 186.455 73.9308 186.027L74.0696 185.924C74.2053 185.824 74.3957 185.851 74.5002 185.983Z" fill="#888C85" stroke="#888C85" stroke-width="0.156" stroke-miterlimit="10"/>
<path id="Vector_8" fill-rule="evenodd" clip-rule="evenodd" d="M59.918 185.774C60.0662 185.966 60.0272 186.241 59.8338 186.386L59.656 186.52C59.1521 186.899 59.0741 187.501 58.915 188.077C58.7558 188.651 58.7558 189.198 58.798 189.506L58.8822 190.113L57.5593 189.85L57.4127 189.652C57.3518 189.211 57.3581 188.515 57.5593 187.788C57.7606 187.061 58.3284 186.431 59.1271 185.83L59.3128 185.692C59.5031 185.548 59.773 185.584 59.918 185.774Z" fill="#888C85" stroke="#888C85" stroke-width="0.156" stroke-miterlimit="10"/>
<path id="Vector_9" fill-rule="evenodd" clip-rule="evenodd" d="M77.0049 186.156C77.1109 186.295 77.0828 186.493 76.944 186.599L76.813 186.699C76.4495 186.976 76.3918 187.419 76.2779 187.841C76.164 188.262 76.1625 188.664 76.1937 188.889L76.2545 189.333L75.2982 189.142L75.1921 188.996C75.1485 188.672 75.1531 188.162 75.2982 187.628C75.4433 187.096 75.8536 186.633 76.4308 186.193L76.5603 186.095C76.7007 185.987 76.8988 186.015 77.0049 186.156Z" fill="#888C85" stroke="#888C85" stroke-width="0.156" stroke-miterlimit="10"/>
<path id="Vector_10" d="M84.4469 41.2678C83.5686 40.2429 81.8854 39.6282 80.5406 39.4644C76.5377 39.5596 74.4052 43.9494 74.0698 46.7091C73.6158 50.4328 74.8732 53.2252 78.2958 55.8507C80.9618 57.8958 83.7995 59.2967 87.3204 59.9301C89.0036 60.2327 91.5667 60.5229 93.161 59.9503C94.3435 59.526 96.5213 58.0393 95.2826 56.7071C94.7897 56.1767 94.0066 56.1065 93.303 55.9505C91.5324 55.5574 89.7353 54.5683 88.8008 53.1846C86.1878 49.3127 87.5825 44.9275 84.4469 41.2678Z" fill="#888C85" stroke="#888C85" stroke-width="1.716" stroke-linecap="round"/>
<path id="Vector_11" d="M42.8255 34.449C43.4942 35.1076 39.7858 39.187 38.0553 39.2761C36.3247 39.3653 36.585 37.0191 37.2051 35.0873C37.7155 33.4956 38.6834 33.2766 40.0032 33.5905C40.9129 33.8063 42.1729 33.8073 42.8255 34.449Z" fill="#888C85"/>
<path id="Vector_12" fill-rule="evenodd" clip-rule="evenodd" d="M24.0635 6.42571C24.2008 5.83756 24.8482 5.53024 25.3895 5.797L28.7015 7.42567C28.9838 7.56451 29.0993 7.90459 28.9589 8.18695C28.8419 8.42251 28.5767 8.54731 28.3208 8.48647L26.8123 8.13235C26.5456 8.06995 26.3333 8.35699 26.4706 8.59255L29.6936 14.1274L28.3723 15.5689L25.6173 9.25711C25.5081 9.00595 25.1493 9.00751 25.0432 9.26179L24.3849 10.8296C24.2632 11.1182 23.9559 11.282 23.6486 11.2196C23.2851 11.1463 23.0542 10.7875 23.1384 10.4271L24.0635 6.42571Z" fill="#888C85"/>
<path id="Vector_13" fill-rule="evenodd" clip-rule="evenodd" d="M23.6866 20.5845C23.7709 16.0262 27.4962 12.7938 32.0529 12.8781C36.6112 12.9639 39.881 16.1073 39.7952 20.664C39.7094 25.2224 36.2821 28.4064 31.7238 28.3221C27.1654 28.2379 23.6008 25.1428 23.6851 20.5845H23.6866Z" fill="#888C85"/>
<path id="Vector_14" fill-rule="evenodd" clip-rule="evenodd" d="M51.7265 36.3041C51.8851 36.3353 52.0478 36.2823 52.1612 36.1668C53.9783 34.3133 57.6035 31.881 61.478 30.8293C65.5652 29.7201 70.5237 29.9172 75.7557 33.3196C76.8141 34.0749 78.4074 35.418 79.7282 36.9762C81.0857 38.5776 82.011 40.2382 82.011 41.6388V42.4968H83.727V41.6388C83.727 39.5916 82.7255 37.4429 81.3202 35.7854C79.8847 34.0915 78.1711 32.6496 77.0195 31.83C77.0099 31.8233 77.0003 31.8165 76.9904 31.81C71.3079 28.1084 65.5496 27.9462 61.0285 29.1734C57.1433 30.2277 54.093 32.6298 52.0985 34.5939C51.7803 34.9072 51.3245 35.0395 50.8914 34.9313L40.7261 32.3893C38.7509 31.9473 36.8124 33.2629 36.4936 35.2615L35.673 40.4064C35.3808 42.2376 35.9861 44.1509 37.4629 45.3768C41.7474 48.9334 48.6083 53.279 56.7765 56.9668C58.0658 57.5487 60.0904 58.2278 61.5789 58.7941C61.8376 58.8924 62.1288 58.7694 62.2354 58.5141C62.3444 58.2526 62.2183 57.9528 61.9564 57.8446C60.5002 57.2419 58.5481 56.3462 57.2855 55.7763C49.2323 52.1405 42.7055 47.4984 38.559 44.0563C37.5976 43.2584 37.1605 41.9745 37.3675 40.6765L38.1883 35.5319C38.351 34.5104 39.3419 33.838 40.3515 34.0637L51.7265 36.3041Z" fill="#888C85"/>
<path id="Vector_15" fill-rule="evenodd" clip-rule="evenodd" d="M80.3709 144.584L80.5721 145.418C81.3974 148.832 81.9356 159.243 82.2866 167.734C82.4628 171.998 82.5408 176.267 82.48 179.893C82.4192 183.493 82.2226 186.534 81.8217 188.293C81.5674 189.407 80.6283 190.08 79.6408 190.234C76.6799 190.7 73.6785 190.507 71.9063 190.236C70.9563 190.09 69.9579 189.426 69.7816 188.254C69.6724 187.527 69.7114 186.724 69.9282 185.988C70.1435 185.253 70.5522 184.52 71.2355 184.031C71.7612 183.655 72.2074 183.37 72.5756 183.153C73.028 182.885 73.2963 182.437 73.2963 182.049L73.5303 166.868L74.5443 166.556L75.0123 182.049C75.0123 183.175 74.3009 184.127 73.4476 184.63C73.1247 184.821 72.7222 185.08 72.2339 185.428C71.9531 185.629 71.7191 185.981 71.5756 186.468C71.4336 186.952 71.404 187.502 71.4789 187.999C71.5116 188.217 71.7269 188.473 72.1668 188.54C73.8142 188.791 76.6316 188.97 79.3756 188.54C79.8171 188.47 80.0823 188.208 80.1509 187.911C80.5066 186.348 80.7063 183.473 80.7671 179.865C80.8264 176.281 81.0214 171.974 80.8451 167.734C80.4926 159.217 80.2991 148.308 79.5191 145.086L80.3709 144.584Z" fill="#888C85" stroke="#888C85" stroke-width="0.156" stroke-miterlimit="10"/>
<path id="Vector_16" fill-rule="evenodd" clip-rule="evenodd" d="M82.0167 55.4848C81.2515 64.9805 85.1406 73.0959 94.2884 79.3843C103.45 85.6836 120.053 90.738 135.259 95.0389C142.138 96.9842 147.622 100.098 151.838 105.246C156.041 110.377 158.916 117.445 160.746 127.176C160.938 128.198 161.347 129.17 161.943 130.02C166.658 136.747 169.37 142.235 170.891 147.074C172.413 151.921 172.727 156.072 172.699 160.089C172.683 162.358 172.741 165.513 172.803 168.983C172.911 174.878 173.034 181.677 172.844 186.552C172.767 188.556 171.1 190.063 169.14 190.063H159.564C157.86 190.063 156.181 188.722 156.2 186.836C156.21 185.976 156.333 184.971 156.807 184.018C157.292 183.045 158.111 182.187 159.397 181.592C159.946 181.34 160.464 181.151 160.911 180.995C160.978 180.971 161.044 180.948 161.106 180.926C161.476 180.797 161.769 180.695 162.022 180.583C162.314 180.454 162.46 180.349 162.537 180.266C162.595 180.206 162.645 180.126 162.663 179.95C162.663 179.951 162.666 179.839 162.648 179.535C162.63 179.262 162.601 178.897 162.559 178.446C162.474 177.547 162.343 176.337 162.175 174.917C161.836 172.078 161.351 168.417 160.796 164.771C160.242 161.122 159.621 157.504 159.016 154.745C158.713 153.361 158.418 152.218 158.145 151.4C158.008 150.988 157.885 150.69 157.782 150.495C157.754 150.441 157.732 150.402 157.713 150.375C157.518 150.297 157.138 150.183 156.504 150.007C156.347 149.963 156.177 149.917 155.994 149.868C155.369 149.697 154.614 149.489 153.762 149.238C151.562 148.589 148.697 147.637 145.55 146.177C139.346 143.301 131.526 137.65 126.028 129.197C125.889 128.983 125.935 128.699 126.133 128.538C126.367 128.348 126.713 128.406 126.878 128.657C132.151 136.646 140.41 141.667 146.36 144.428C149.394 145.836 152.163 146.756 154.308 147.389C155.138 147.634 155.868 147.834 156.493 148.006C156.678 148.055 156.852 148.104 157.018 148.149C157.693 148.336 158.312 148.513 158.67 148.692C158.908 148.811 159.075 148.987 159.188 149.126C159.305 149.271 159.403 149.436 159.489 149.6C159.66 149.926 159.821 150.335 159.974 150.789C160.28 151.703 160.592 152.926 160.899 154.333C161.518 157.153 162.145 160.819 162.702 164.484C163.259 168.15 163.591 171.655 163.932 174.515C164.155 176.387 164.147 177.026 164.233 177.947C164.276 178.407 164.242 178.781 164.261 179.082C164.278 179.352 164.29 179.631 164.27 179.819C164.211 180.383 163.961 180.85 163.602 181.235C163.265 181.597 162.846 181.829 162.456 182.003C162.123 182.149 161.744 182.282 161.381 182.408C161.32 182.429 161.261 182.45 161.202 182.471C160.766 182.624 160.32 182.786 159.855 183.001C158.628 183.567 158.34 183.875 158.16 184.655C157.926 185.669 158.011 186.132 158.004 186.837C157.997 187.472 158.746 188.137 159.562 188.137H169.139C170.109 188.137 170.88 187.4 170.916 186.478C171.103 181.636 170.981 175 170.875 169.159C170.811 165.66 170.752 162.448 170.767 160.078C170.794 156.188 170.491 152.252 169.048 147.655C167.601 143.049 164.994 137.738 160.361 131.129C159.606 130.053 159.091 128.824 158.847 127.534C157.052 117.977 154.266 111.257 150.345 106.469C146.438 101.699 141.333 98.7626 134.731 96.8953C119.486 92.5834 102.627 87.4604 93.1933 80.9755C83.7475 74.4812 79.105 64.3833 81.2515 54.3148L82.0167 55.4848Z" fill="#888C85" stroke="#888C85" stroke-width="0.156" stroke-miterlimit="10"/>
<path id="Vector_17" fill-rule="evenodd" clip-rule="evenodd" d="M161.902 184.061C162.036 184.261 161.998 184.529 161.816 184.685L161.604 184.867C161.097 185.301 161.017 185.994 160.858 186.654C160.699 187.314 160.697 187.942 160.741 188.293L160.825 188.991L159.43 189.159L159.346 188.462C159.285 187.955 159.292 187.158 159.493 186.323C159.696 185.488 160.267 184.766 161.07 184.077L161.2 183.966C161.415 183.782 161.742 183.825 161.902 184.061Z" fill="#888C85" stroke="#888C85" stroke-width="0.156" stroke-miterlimit="10"/>
<path id="Vector_18" fill-rule="evenodd" clip-rule="evenodd" d="M165.44 184.451C165.574 184.651 165.538 184.919 165.355 185.075L165.143 185.258C164.636 185.691 164.557 186.384 164.398 187.044C164.239 187.704 164.237 188.332 164.279 188.683L164.363 189.381L163.033 189.08L162.886 188.852C162.824 188.345 162.831 187.548 163.033 186.713C163.235 185.878 163.806 185.156 164.61 184.467L164.739 184.356C164.955 184.172 165.282 184.215 165.44 184.451Z" fill="#888C85" stroke="#888C85" stroke-width="0.156" stroke-miterlimit="10"/>
<path id="Vector_19" d="M158.968 105.601C157.219 103.233 155.226 102.322 153.421 102.186C151.635 102.052 150.079 102.678 149.178 103.308L148.812 103.562L157.191 114.677L157.506 114.529C158.492 114.063 160.09 113.641 160.654 112.113C161.232 110.554 160.714 107.965 158.968 105.601Z" fill="#888C85" stroke="#888C85" stroke-width="0.156" stroke-miterlimit="10"/>
<g id="Subtract">
<path fill-rule="evenodd" clip-rule="evenodd" d="M85.9102 68.0742C86.0756 68.614 86.1364 69.2271 86.1302 69.5687L86.1286 69.5656C86.113 70.3908 85.7292 71.007 85.1864 71.4875C84.6794 71.9368 84.0148 72.2862 83.3518 72.6029C75.8123 81.1751 70.3664 86.2701 66.443 88.9923C64.4774 90.3557 62.8674 91.1419 61.5492 91.4602C60.2217 91.7815 59.1562 91.6318 58.3388 91.0842C57.5322 90.5429 57.0377 89.6631 56.7382 88.6709C56.4371 87.6756 56.317 86.5212 56.2936 85.3668C56.2562 83.5397 56.4587 81.6409 56.6037 80.2808L56.604 80.2781C56.6415 79.9411 56.6727 79.6369 56.6976 79.3749C56.4714 77.0193 56.4605 75.258 56.7366 74.0412C56.8755 73.425 57.0954 72.9133 57.4277 72.5358C57.7694 72.1474 58.2046 71.9243 58.7147 71.851C59.0189 71.8073 59.3044 71.8635 59.5228 71.9087C60.8894 72.1948 66.8652 72.6954 77.9915 68.7712C77.9225 69.2982 78.1944 69.7212 78.7605 69.9353C79.4453 70.1942 80.1551 69.9946 80.4141 69.3097V69.3113C80.5931 68.8379 80.4836 68.3258 80.1729 67.9692C81.4558 67.4787 82.8001 66.9323 84.2067 66.3239L84.2847 66.2896H84.3689C84.7402 66.2833 85.0116 66.4892 85.1895 66.717C85.3626 66.9401 85.8275 67.8059 85.9102 68.0742ZM61.9777 77.7685C62.7093 77.7685 63.3037 77.3301 63.3037 76.5985C63.3037 75.8653 62.7093 75.2725 61.9777 75.2725C61.246 75.2725 60.8077 75.8668 60.8077 76.5985C60.8077 77.3301 61.246 77.7685 61.9777 77.7685ZM67.1675 79.6067C67.7338 80.0701 67.6979 80.8064 67.2346 81.3742C66.7713 81.942 66.1551 82.0029 65.5888 81.5396C65.0225 81.0763 64.84 80.3618 65.3033 79.7939C65.7667 79.2277 66.6028 79.1434 67.1691 79.6067H67.1675ZM73.7324 76.312C74.464 76.312 75.0584 75.8736 75.0584 75.142C75.0584 74.4088 74.464 73.816 73.7324 73.816C73.0007 73.816 72.5624 74.4104 72.5624 75.142C72.5624 75.8736 73.0007 76.312 73.7324 76.312ZM62.1854 88.4803C62.917 88.4803 63.5114 88.0419 63.5114 87.3103C63.5114 86.5771 62.917 85.9843 62.1854 85.9843C61.4538 85.9843 61.0154 86.5786 61.0154 87.3103C61.0154 88.0419 61.4538 88.4803 62.1854 88.4803Z" fill="#888C85"/>
<path d="M86.1302 69.5687L86.0604 69.6036L86.2023 69.8877L86.2081 69.5701L86.1302 69.5687ZM85.9102 68.0742L85.9848 68.0514L85.9847 68.0512L85.9102 68.0742ZM86.1286 69.5656L86.1984 69.5307L86.0566 69.247L86.0506 69.5641L86.1286 69.5656ZM85.1864 71.4875L85.1347 71.4291L85.1346 71.4291L85.1864 71.4875ZM83.3518 72.6029L83.3182 72.5325L83.3038 72.5394L83.2932 72.5514L83.3518 72.6029ZM66.443 88.9923L66.4874 89.0563L66.4874 89.0563L66.443 88.9923ZM61.5492 91.4602L61.5309 91.3844L61.5309 91.3844L61.5492 91.4602ZM58.3388 91.0842L58.2953 91.149L58.2953 91.149L58.3388 91.0842ZM56.7382 88.6709L56.8129 88.6484L56.8128 88.6483L56.7382 88.6709ZM56.2936 85.3668L56.3716 85.3652L56.3716 85.3652L56.2936 85.3668ZM56.6037 80.2808L56.6813 80.2891L56.6813 80.2891L56.6037 80.2808ZM56.604 80.2781L56.5265 80.2695L56.5265 80.2698L56.604 80.2781ZM56.6976 79.3749L56.7753 79.3822L56.776 79.3748L56.7753 79.3674L56.6976 79.3749ZM56.7366 74.0412L56.8127 74.0585L56.8127 74.0584L56.7366 74.0412ZM57.4277 72.5358L57.4863 72.5873L57.4863 72.5873L57.4277 72.5358ZM58.7147 71.851L58.7036 71.7738L58.7036 71.7738L58.7147 71.851ZM59.5228 71.9087L59.5388 71.8323L59.5386 71.8323L59.5228 71.9087ZM77.9915 68.7712L78.0688 68.7813L78.0853 68.6554L77.9655 68.6976L77.9915 68.7712ZM78.7605 69.9353L78.7329 70.0082L78.7329 70.0082L78.7605 69.9353ZM80.4141 69.3097H80.4921V68.8829L80.3411 69.2821L80.4141 69.3097ZM80.4141 69.3113H80.3361V69.7381L80.487 69.3389L80.4141 69.3113ZM80.1729 67.9692L80.145 67.8963L80.0407 67.9362L80.1141 68.0204L80.1729 67.9692ZM84.2067 66.3239L84.2376 66.3955L84.2381 66.3953L84.2067 66.3239ZM84.2847 66.2896V66.2116H84.2683L84.2533 66.2182L84.2847 66.2896ZM84.3689 66.2896V66.3676L84.3702 66.3676L84.3689 66.2896ZM85.1895 66.717L85.2511 66.6692L85.2509 66.669L85.1895 66.717ZM67.2346 81.3742L67.295 81.4235L67.295 81.4235L67.2346 81.3742ZM67.1675 79.6067V79.5287H66.949L67.1181 79.6671L67.1675 79.6067ZM65.5888 81.5396L65.6382 81.4792L65.6382 81.4792L65.5888 81.5396ZM65.3033 79.7939L65.243 79.7445L65.2429 79.7446L65.3033 79.7939ZM67.1691 79.6067V79.6847H67.3876L67.2185 79.5464L67.1691 79.6067ZM86.2081 69.5701C86.2145 69.221 86.1527 68.5997 85.9848 68.0514L85.8356 68.0971C85.9984 68.6283 86.0583 69.2331 86.0522 69.5673L86.2081 69.5701ZM86.0588 69.6004L86.0604 69.6036L86.1999 69.5338L86.1984 69.5307L86.0588 69.6004ZM85.238 71.5459C85.7929 71.0548 86.1905 70.4193 86.2066 69.567L86.0506 69.5641C86.0355 70.3623 85.6656 70.9592 85.1347 71.4291L85.238 71.5459ZM83.3854 72.6733C84.0487 72.3564 84.7221 72.0031 85.2381 71.5459L85.1346 71.4291C84.6366 71.8705 83.9809 72.216 83.3182 72.5325L83.3854 72.6733ZM66.4874 89.0563C70.4187 86.3286 75.8697 81.2279 83.4104 72.6544L83.2932 72.5514C75.7549 81.1222 70.314 86.2115 66.3985 88.9282L66.4874 89.0563ZM61.5675 91.536C62.899 91.2146 64.518 90.4224 66.4874 89.0563L66.3985 88.9282C64.4367 90.2889 62.8359 91.0693 61.5309 91.3844L61.5675 91.536ZM58.2953 91.149C59.1357 91.7119 60.2251 91.8609 61.5676 91.536L61.5309 91.3844C60.2182 91.7021 59.1767 91.5516 58.3822 91.0194L58.2953 91.149ZM56.6635 88.6934C56.9658 89.6948 57.468 90.5937 58.2953 91.149L58.3822 91.0194C57.5964 90.492 57.1096 89.6314 56.8129 88.6484L56.6635 88.6934ZM56.2156 85.3684C56.2391 86.5263 56.3596 87.6886 56.6635 88.6935L56.8128 88.6483C56.5147 87.6626 56.3949 86.5161 56.3716 85.3652L56.2156 85.3684ZM56.5262 80.2725C56.3812 81.632 56.1781 83.5356 56.2156 85.3684L56.3716 85.3652C56.3343 83.5438 56.5362 81.6498 56.6813 80.2891L56.5262 80.2725ZM56.5265 80.2698L56.5262 80.2725L56.6813 80.2891L56.6816 80.2864L56.5265 80.2698ZM56.62 79.3675C56.5951 79.6291 56.5639 79.9329 56.5265 80.2695L56.6816 80.2867C56.719 79.9494 56.7503 79.6448 56.7753 79.3822L56.62 79.3675ZM56.6606 74.0239C56.3815 75.2538 56.3937 77.0259 56.62 79.3823L56.7753 79.3674C56.5492 77.0126 56.5395 75.2622 56.8127 74.0585L56.6606 74.0239ZM57.3692 72.4843C57.0252 72.8751 56.801 73.4005 56.6605 74.0241L56.8127 74.0584C56.9499 73.4495 57.1657 72.9516 57.4863 72.5873L57.3692 72.4843ZM58.7036 71.7738C58.1763 71.8495 57.7238 72.081 57.3691 72.4843L57.4863 72.5873C57.8149 72.2137 58.2328 71.999 58.7258 71.9282L58.7036 71.7738ZM59.5386 71.8323C59.3205 71.7871 59.0228 71.7279 58.7036 71.7738L58.7258 71.9282C59.015 71.8866 59.2883 71.9398 59.507 71.9851L59.5386 71.8323ZM77.9655 68.6976C66.8482 72.6187 60.8874 72.1147 59.5388 71.8323L59.5068 71.985C60.8914 72.2749 66.8822 72.7721 78.0174 68.8448L77.9655 68.6976ZM78.7881 69.8623C78.517 69.7598 78.3223 69.6096 78.2031 69.4278C78.0842 69.2467 78.0365 69.0283 78.0688 68.7813L77.9141 68.7611C77.8775 69.0411 77.9312 69.2978 78.0726 69.5134C78.2136 69.7284 78.4379 69.8967 78.7329 70.0082L78.7881 69.8623ZM80.3411 69.2821C80.2198 69.6031 79.9948 69.8073 79.7213 69.9028C79.4461 69.9989 79.1165 69.9865 78.7881 69.8623L78.7329 70.0082C79.0893 70.143 79.4571 70.1603 79.7727 70.0501C80.09 69.9393 80.3494 69.7012 80.487 69.3373L80.3411 69.2821ZM80.4921 69.3113V69.3097H80.3361V69.3113H80.4921ZM80.1141 68.0204C80.4067 68.3563 80.5096 68.8383 80.3411 69.2837L80.487 69.3389C80.6766 68.8376 80.5606 68.2954 80.2317 67.9179L80.1141 68.0204ZM84.1757 66.2523C82.7702 66.8602 81.4268 67.4062 80.145 67.8963L80.2007 68.042C81.4847 67.5511 82.8301 67.0043 84.2376 66.3955L84.1757 66.2523ZM84.2533 66.2182L84.1753 66.2525L84.2381 66.3953L84.3161 66.361L84.2533 66.2182ZM84.3689 66.2116H84.2847V66.3676H84.3689V66.2116ZM85.2509 66.669C85.0642 66.4299 84.7719 66.2048 84.3676 66.2116L84.3702 66.3676C84.7085 66.3619 84.959 66.5486 85.128 66.765L85.2509 66.669ZM85.9847 68.0512C85.9408 67.9088 85.8002 67.6187 85.6526 67.3419C85.5047 67.0647 85.3423 66.7867 85.2511 66.6692L85.1279 66.7648C85.2098 66.8704 85.3664 67.1369 85.5149 67.4153C85.6637 67.6943 85.7969 67.9713 85.8356 68.0972L85.9847 68.0512ZM63.2257 76.5985C63.2257 76.9413 63.0873 77.2119 62.8649 77.398C62.6413 77.5854 62.3285 77.6905 61.9777 77.6905V77.8465C62.3585 77.8465 62.7087 77.7324 62.9651 77.5176C63.2229 77.3017 63.3817 76.9873 63.3817 76.5985H63.2257ZM61.9777 75.3505C62.6663 75.3505 63.2257 75.9084 63.2257 76.5985H63.3817C63.3817 75.8221 62.7523 75.1945 61.9777 75.1945V75.3505ZM60.8857 76.5985C60.8857 76.2477 60.9908 75.9349 61.1781 75.7112C61.3643 75.4889 61.6349 75.3505 61.9777 75.3505V75.1945C61.5888 75.1945 61.2744 75.3533 61.0585 75.611C60.8437 75.8675 60.7297 76.2177 60.7297 76.5985H60.8857ZM61.9777 77.6905C61.6275 77.6905 61.3566 77.5859 61.1735 77.4027C60.9903 77.2195 60.8857 76.9487 60.8857 76.5985H60.7297C60.7297 76.9799 60.8442 77.2941 61.0631 77.513C61.2821 77.7319 61.5962 77.8465 61.9777 77.8465V77.6905ZM67.295 81.4235C67.5362 81.128 67.6693 80.7847 67.6652 80.4503C67.661 80.1142 67.5178 79.7926 67.2169 79.5464L67.1181 79.6671C67.3835 79.8842 67.5056 80.1624 67.5092 80.4522C67.5128 80.7438 67.3964 81.0526 67.1742 81.3249L67.295 81.4235ZM65.5394 81.5999C65.8346 81.8415 66.1501 81.952 66.4581 81.9212C66.766 81.8904 67.0535 81.7195 67.295 81.4235L67.1742 81.3249C66.9524 81.5967 66.7001 81.7402 66.4426 81.766C66.185 81.7917 65.9093 81.701 65.6382 81.4792L65.5394 81.5999ZM65.2429 79.7446C64.9967 80.0463 64.9205 80.3903 64.9833 80.7205C65.0458 81.0491 65.2447 81.3588 65.5394 81.5999L65.6382 81.4792C65.3666 81.257 65.1911 80.9779 65.1366 80.6914C65.0824 80.4066 65.1466 80.1094 65.3638 79.8432L65.2429 79.7446ZM67.2185 79.5464C66.6188 79.0557 65.7335 79.145 65.243 79.7445L65.3637 79.8433C65.7998 79.3103 66.5868 79.2311 67.1197 79.6671L67.2185 79.5464ZM67.1675 79.6847H67.1691V79.5287H67.1675V79.6847ZM74.9804 75.142C74.9804 75.4848 74.842 75.7554 74.6197 75.9416C74.396 76.1289 74.0832 76.234 73.7324 76.234V76.39C74.1132 76.39 74.4634 76.2759 74.7198 76.0612C74.9776 75.8453 75.1364 75.5308 75.1364 75.142H74.9804ZM73.7324 73.894C74.421 73.894 74.9804 74.4519 74.9804 75.142H75.1364C75.1364 74.3657 74.507 73.738 73.7324 73.738V73.894ZM72.6404 75.142C72.6404 74.7912 72.7455 74.4784 72.9328 74.2547C73.119 74.0324 73.3896 73.894 73.7324 73.894V73.738C73.3435 73.738 73.0291 73.8968 72.8132 74.1545C72.5984 74.411 72.4844 74.7612 72.4844 75.142H72.6404ZM73.7324 76.234C73.3822 76.234 73.1113 76.1294 72.9282 75.9462C72.745 75.763 72.6404 75.4922 72.6404 75.142H72.4844C72.4844 75.5234 72.5989 75.8376 72.8179 76.0565C73.0368 76.2754 73.3509 76.39 73.7324 76.39V76.234ZM63.4334 87.3103C63.4334 87.6531 63.295 87.9237 63.0727 88.1099C62.849 88.2972 62.5362 88.4023 62.1854 88.4023V88.5583C62.5662 88.5583 62.9164 88.4442 63.1729 88.2295C63.4306 88.0136 63.5894 87.6991 63.5894 87.3103H63.4334ZM62.1854 86.0623C62.874 86.0623 63.4334 86.6202 63.4334 87.3103H63.5894C63.5894 86.5339 62.9601 85.9063 62.1854 85.9063V86.0623ZM61.0934 87.3103C61.0934 86.9595 61.1985 86.6467 61.3858 86.423C61.572 86.2007 61.8426 86.0623 62.1854 86.0623V85.9063C61.7966 85.9063 61.4821 86.0651 61.2662 86.3228C61.0515 86.5793 60.9374 86.9295 60.9374 87.3103H61.0934ZM62.1854 88.4023C61.8352 88.4023 61.5644 88.2977 61.3812 88.1145C61.198 87.9313 61.0934 87.6605 61.0934 87.3103H60.9374C60.9374 87.6917 61.052 88.0059 61.2709 88.2248C61.4898 88.4437 61.804 88.5583 62.1854 88.5583V88.4023Z" fill="#888C85"/>
</g>
<path id="Vector_20" d="M137.166 133.902C137.327 134.527 137.458 135.137 137.683 135.746C137.744 135.912 137.895 136.282 138.143 136.243L138.195 136.235C138.492 136.187 138.563 135.825 138.606 135.58C138.776 134.633 138.143 133.803 137.705 133.026C137.581 132.808 137.385 132.761 137.237 132.983C137.064 133.243 137.095 133.618 137.168 133.903L137.166 133.902Z" fill="#888C85"/>
<path id="Vector_21" d="M155.353 137.822C155.534 138.342 155.706 138.855 155.912 139.367C156.052 139.716 156.177 140.303 156.55 140.496C156.628 140.537 156.698 140.496 156.751 140.438C157.216 139.938 156.909 138.894 156.685 138.362C156.462 137.83 156.166 137.404 155.734 137.013C155.334 136.652 155.285 137.624 155.355 137.822H155.353Z" fill="#888C85"/>
<path id="Vector_22" d="M150.447 139.375C150.628 139.894 150.8 140.408 151.005 140.919C151.146 141.269 151.271 141.855 151.643 142.049C151.721 142.089 151.792 142.049 151.845 141.991C152.31 141.49 152.002 140.447 151.779 139.915C151.556 139.383 151.26 138.957 150.828 138.565C150.428 138.205 150.378 139.177 150.448 139.375H150.447Z" fill="#888C85"/>
<path id="Vector_23" d="M163.209 164.773C163.264 165.723 163.195 166.806 163.501 167.734C163.529 167.818 163.61 168.01 163.733 167.99C164.398 167.879 164.262 166.547 164.215 166.105C164.148 165.472 163.963 164.918 163.682 164.36C163.451 163.899 163.194 164.534 163.208 164.775L163.209 164.773Z" fill="#888C85"/>
<path id="Vector_24" d="M161.338 147.456C161.393 148.406 161.324 149.489 161.63 150.417C161.658 150.502 161.739 150.693 161.862 150.673C162.527 150.562 162.391 149.23 162.344 148.789C162.277 148.155 162.092 147.601 161.811 147.043C161.58 146.583 161.322 147.218 161.336 147.458L161.338 147.456Z" fill="#888C85"/>
<path id="Vector_25" d="M166.49 171.481C166.545 172.431 166.476 173.514 166.782 174.442C166.81 174.526 166.891 174.718 167.015 174.698C167.679 174.587 167.543 173.255 167.497 172.813C167.43 172.18 167.244 171.626 166.963 171.068C166.732 170.608 166.475 171.243 166.489 171.483L166.49 171.481Z" fill="#888C85"/>
<path id="Vector_26" d="M148.396 121.256C148.577 121.776 148.749 122.289 148.955 122.801C149.095 123.15 149.22 123.737 149.593 123.93C149.671 123.971 149.741 123.93 149.794 123.872C150.259 123.372 149.951 122.328 149.728 121.796C149.505 121.264 149.209 120.838 148.777 120.447C148.377 120.086 148.328 121.058 148.398 121.256H148.396Z" fill="#888C85"/>
<path id="Vector_27" d="M151.96 137.274C152.174 138.198 152.428 139.082 152.79 139.96C153.102 140.717 153.416 141.669 154.009 142.25C154.601 142.832 154.692 141.266 154.603 140.981C154.639 141.728 154.662 141.921 154.672 141.564C154.683 141.442 154.676 141.321 154.654 141.199C154.628 141.026 154.57 140.845 154.509 140.681C154.338 140.215 154.071 139.781 153.856 139.335C153.431 138.452 153.046 137.544 152.676 136.638C152.307 135.731 151.831 136.728 151.959 137.276L151.96 137.274Z" fill="#888C85"/>
<path id="Vector_28" d="M67.3339 102.952C67.5679 103.941 67.8643 104.888 68.259 105.827C68.5866 106.606 68.9188 107.688 69.5709 108.256C69.6832 108.354 69.7722 108.403 69.9172 108.337L70.0108 108.295C70.1965 108.212 70.209 107.878 70.2136 107.716C70.2511 106.707 69.6364 105.855 69.223 104.974C68.7847 104.041 68.3822 103.085 68.0047 102.125C67.9017 101.865 67.7176 101.609 67.4509 101.851C67.1841 102.092 67.2637 102.652 67.3339 102.95V102.952Z" fill="#888C85"/>
<path id="Vector_29" d="M117.715 132.622C117.713 132.608 117.869 131.502 117.738 132.026C117.707 132.152 117.693 132.288 117.696 132.418C117.702 132.684 117.768 132.96 117.835 133.218C117.95 133.659 118.133 134.093 118.35 134.495C118.532 134.834 118.833 134.817 119.002 134.48C119.188 134.11 119.173 133.499 118.969 133.137C118.975 134.358 119.022 134.665 119.111 134.059C119.128 133.89 119.125 133.722 119.099 133.553C119.056 133.297 118.944 133.095 118.824 132.873C118.643 132.541 118.495 132.196 118.326 131.857C118.223 131.652 118.035 131.569 117.868 131.748C117.671 131.959 117.679 132.364 117.716 132.625L117.715 132.622Z" fill="#888C85"/>
<path id="Vector_30" d="M130.941 102.946C130.94 102.932 131.096 101.826 130.965 102.35C130.934 102.477 130.92 102.612 130.923 102.742C130.929 103.009 130.994 103.285 131.062 103.542C131.177 103.984 131.36 104.417 131.576 104.82C131.759 105.158 132.06 105.141 132.228 104.804C132.414 104.434 132.4 103.823 132.196 103.461C132.202 104.682 132.249 104.99 132.338 104.383C132.355 104.214 132.352 104.046 132.325 103.878C132.283 103.622 132.171 103.419 132.051 103.197C131.87 102.865 131.721 102.52 131.553 102.182C131.45 101.976 131.261 101.893 131.094 102.073C130.898 102.283 130.906 102.689 130.943 102.949L130.941 102.946Z" fill="#888C85"/>
<path id="Vector_31" d="M95.9985 131.521C95.7926 132.309 95.9003 133.021 96.1623 133.787C96.284 134.142 96.4306 134.499 96.5944 134.838C96.791 135.244 96.8753 135.415 97.2933 135.535C97.6443 135.637 97.6709 135.003 97.6303 134.796C97.5617 134.439 97.5367 134.117 97.3729 133.788C97.2091 133.459 97.0188 133.13 96.8659 132.787C96.6381 132.27 96.518 131.815 96.0422 131.486C96.0204 131.47 96.0032 131.509 96.0001 131.523L95.9985 131.521Z" fill="#888C85"/>
<path id="Vector_32" d="M145.473 121.471C145.471 121.457 145.627 120.351 145.496 120.875C145.465 121.002 145.451 121.137 145.454 121.267C145.46 121.534 145.526 121.81 145.593 122.067C145.708 122.509 145.891 122.942 146.108 123.345C146.29 123.683 146.591 123.666 146.76 123.329C146.945 122.959 146.931 122.348 146.727 121.986C146.733 123.208 146.78 123.515 146.869 122.908C146.886 122.74 146.883 122.571 146.856 122.403C146.814 122.147 146.702 121.944 146.582 121.722C146.401 121.39 146.253 121.045 146.084 120.707C145.981 120.501 145.792 120.418 145.626 120.598C145.429 120.808 145.437 121.214 145.474 121.474L145.473 121.471Z" fill="#888C85"/>
<path id="Vector_33" d="M138.719 131.041C138.819 130.08 138.813 129.826 138.7 130.277C138.675 130.403 138.664 130.531 138.669 130.66C138.675 130.899 138.742 131.103 138.814 131.331C139.003 131.932 139.206 132.531 139.416 133.124C139.627 133.716 139.886 134.348 140.154 134.944C140.363 135.409 140.536 135.982 140.995 136.256C141.358 136.473 141.366 135.445 141.341 135.306C141 133.476 139.901 131.812 139.167 130.113C138.856 129.397 138.625 130.756 138.719 131.043V131.041Z" fill="#888C85"/>
<path id="Vector_34" d="M69.5287 102.419C69.8344 103.43 70.0809 104.733 70.7533 105.575C70.7985 105.651 70.8656 105.695 70.9514 105.704L71.0434 105.686C71.3164 105.628 71.3351 105.112 71.3242 104.913C71.2587 103.642 70.513 102.6 69.9795 101.481C69.8656 101.241 69.7268 101.212 69.5817 101.432C69.421 101.675 69.4491 102.16 69.5287 102.419Z" fill="#888C85"/>
<path id="Vector_35" d="M137.157 111.234C137.368 111.913 137.547 112.601 137.776 113.273C137.96 113.812 138.101 114.521 138.528 114.919C139.077 115.432 139.182 114.192 139.155 113.913C139.04 112.676 138.222 111.461 137.695 110.359C137.572 110.103 137.385 110.136 137.227 110.316C137.038 110.529 137.084 110.994 137.158 111.236L137.157 111.234Z" fill="#888C85"/>
<path id="Vector_36" d="M133.036 112.43C133.246 113.109 133.426 113.797 133.655 114.469C133.839 115.007 133.98 115.717 134.407 116.115C134.956 116.628 135.061 115.388 135.034 115.109C134.919 113.871 134.101 112.656 133.574 111.555C133.451 111.299 133.264 111.332 133.106 111.511C132.917 111.725 132.963 112.19 133.037 112.432L133.036 112.43Z" fill="#888C85"/>
<path id="Vector_37" d="M134.853 111.353C135.072 112.067 135.276 112.783 135.554 113.477C135.697 113.836 135.959 114.833 136.448 114.802C136.785 114.78 136.727 114.005 136.713 113.827C136.618 112.599 135.818 111.507 135.306 110.417C135.184 110.158 135.064 110.168 134.908 110.367C134.735 110.585 134.782 111.117 134.855 111.354L134.853 111.353Z" fill="#888C85"/>
<path id="Vector_38" d="M95.2858 95.9424C95.4964 96.621 95.6758 97.3089 95.9052 97.9813C96.0892 98.5195 96.2296 99.2293 96.6571 99.6271C97.2062 100.14 97.3105 98.9001 97.2839 98.6209C97.1685 97.3838 96.3513 96.1686 95.824 95.0672C95.7008 94.8114 95.5136 94.8441 95.356 95.0235C95.1673 95.2373 95.2125 95.7021 95.2874 95.9439L95.2858 95.9424Z" fill="#888C85"/>
<path id="Vector_39" d="M74.1647 64.0312C74.3753 64.7098 74.5547 65.3978 74.7841 66.0702C74.9681 66.6084 75.1085 67.3182 75.536 67.716C76.0851 68.2292 76.1896 66.989 76.1631 66.7098C76.0477 65.4727 75.2302 64.2574 74.7029 63.1561C74.5797 62.9002 74.3925 62.933 74.2349 63.1124C74.0462 63.3261 74.0914 63.791 74.1663 64.0328L74.1647 64.0312Z" fill="#888C85"/>
<path id="Vector_40" d="M97.465 93.5036C97.5649 92.5426 97.5586 92.2884 97.4463 92.7392C97.4214 92.8656 97.4104 92.9935 97.4151 93.123C97.4214 93.3616 97.4884 93.566 97.5602 93.7938C97.749 94.3944 97.9518 94.9934 98.1624 95.5862C98.373 96.179 98.6319 96.8108 98.9002 97.4067C99.1093 97.8716 99.2824 98.4441 99.7411 98.7187C100.105 98.9355 100.112 97.9075 100.087 97.7686C99.7458 95.9388 98.6475 94.2742 97.9128 92.5754C97.6023 91.8594 97.3714 93.2181 97.465 93.5052V93.5036Z" fill="#888C85"/>
<path id="Vector_41" d="M110.404 123.986C110.666 124.718 110.895 125.459 111.176 126.182C111.4 126.761 111.581 127.512 112.04 127.944C112.577 128.451 112.711 127.224 112.667 126.937C112.461 125.577 111.566 124.312 110.942 123.109C110.578 122.409 110.288 123.657 110.405 123.986H110.404Z" fill="#888C85"/>
<path id="Vector_42" d="M107.866 124.877C107.858 123.905 107.827 123.662 107.771 124.145C107.76 124.28 107.763 124.414 107.78 124.546C107.813 124.765 107.896 124.957 107.972 125.164C108.223 125.841 108.475 126.523 108.748 127.192C109.021 127.861 109.312 128.471 109.624 129.094C109.863 129.568 110.047 130.094 110.517 130.382C110.925 130.632 110.86 129.39 110.827 129.25C110.379 127.332 109.099 125.573 108.259 123.801C108.128 123.523 107.964 123.565 107.838 123.812C107.687 124.108 107.754 124.582 107.865 124.879L107.866 124.877Z" fill="#888C85"/>
<path id="Vector_43" d="M92.3366 118.411C92.4926 118.956 92.6112 119.508 92.7906 120.044C92.931 120.463 93.0433 121.102 93.4754 121.308C93.9075 121.514 94.0136 120.672 94.0152 120.448C94.0276 119.395 93.3381 118.438 92.8717 117.534C92.7516 117.302 92.5519 117.283 92.4037 117.491C92.2274 117.737 92.257 118.14 92.335 118.411H92.3366Z" fill="#888C85"/>
<path id="Vector_44" d="M79.7663 111.892C79.9223 112.436 80.0408 112.989 80.2202 113.525C80.3606 113.943 80.473 114.583 80.9051 114.789C81.3372 114.995 81.4433 114.152 81.4449 113.929C81.4573 112.876 80.7678 111.918 80.3014 111.015C80.1812 110.783 79.9816 110.764 79.8334 110.971C79.6571 111.218 79.6867 111.62 79.7647 111.892H79.7663Z" fill="#888C85"/>
<path id="Vector_45" d="M80.0514 99.2288C80.2074 99.7733 80.326 100.326 80.5054 100.862C80.6458 101.28 80.7581 101.92 81.1902 102.126C81.6224 102.332 81.7284 101.49 81.73 101.266C81.7425 100.213 81.053 99.2553 80.5865 98.3521C80.4664 98.1197 80.2667 98.1012 80.1185 98.3087C79.9422 98.5552 79.9719 98.9574 80.0499 99.2288H80.0514Z" fill="#888C85"/>
<path id="Vector_46" d="M69.8825 117.257C70.0307 117.764 70.1399 118.281 70.3178 118.78C70.466 119.196 70.5767 119.764 71.0603 119.864C71.324 119.919 71.4628 119.366 71.4722 119.209C71.5315 118.117 70.9309 117.29 70.4192 116.381C70.2928 116.156 70.1041 116.123 69.9512 116.337C69.7749 116.582 69.803 116.987 69.8825 117.257Z" fill="#888C85"/>
<path id="Vector_47" d="M90.6286 104.397C90.7768 104.904 90.886 105.421 91.0639 105.92C91.2121 106.336 91.3228 106.904 91.8064 107.004C92.0701 107.059 92.2089 106.506 92.2183 106.349C92.2776 105.257 91.677 104.43 91.1653 103.52C91.0389 103.296 90.8502 103.263 90.6973 103.477C90.521 103.722 90.5491 104.127 90.6286 104.397Z" fill="#888C85"/>
<path id="Vector_48" d="M77.0896 63.9397C77.2378 64.4467 77.347 64.9631 77.5248 65.4623C77.673 65.8788 77.7838 66.4467 78.2674 66.5465C78.531 66.6011 78.6699 66.0489 78.6792 65.8913C78.7385 64.7993 78.1379 63.9725 77.6262 63.063C77.4999 62.8384 77.3111 62.8056 77.1582 63.0193C76.9819 63.2643 77.01 63.6699 77.0896 63.9397Z" fill="#888C85"/>
<path id="Vector_49" d="M71.6001 140.685C71.3489 141.743 70.7764 143.046 71.0853 144.139C71.1383 144.325 71.3957 144.777 71.6594 144.579C72.0416 144.294 72.0447 143.703 72.1102 143.266C72.2132 142.586 72.2225 141.904 72.2647 141.219C72.2787 140.977 72.2818 140.532 72.0385 140.383C71.8107 140.244 71.6531 140.464 71.6017 140.685H71.6001Z" fill="#888C85"/>
<path id="Vector_50" d="M70.1771 129.05C70.1272 130.093 69.8526 131.33 70.1568 132.355C70.3424 132.981 70.8557 132.922 71.0288 132.333C71.1521 131.912 71.1006 131.404 71.0788 130.968C71.046 130.316 70.943 129.678 70.8666 129.031C70.7902 128.384 70.2083 128.404 70.1786 129.048L70.1771 129.05Z" fill="#888C85"/>
<path id="Vector_51" d="M73.7212 149.325C73.47 150.383 72.8975 151.686 73.2064 152.779C73.2594 152.965 73.5168 153.417 73.7805 153.219C74.1627 152.934 74.1658 152.342 74.2313 151.906C74.3343 151.225 74.3436 150.544 74.3858 149.859C74.3998 149.617 74.4029 149.172 74.1596 149.023C73.9318 148.884 73.7742 149.104 73.7228 149.325H73.7212Z" fill="#888C85"/>
<path id="Vector_52" d="M77.4321 132.513C77.181 133.57 76.6084 134.873 76.9173 135.966C76.9704 136.152 77.2278 136.604 77.4914 136.406C77.8736 136.121 77.8767 135.53 77.9423 135.093C78.0452 134.413 78.0546 133.731 78.0967 133.046C78.1107 132.804 78.1139 132.36 77.8705 132.21C77.6427 132.071 77.4852 132.291 77.4337 132.513H77.4321Z" fill="#888C85"/>
<path id="Vector_53" d="M67.8931 157.995C67.6419 159.053 67.0694 160.355 67.3783 161.449C67.4313 161.634 67.6887 162.087 67.9523 161.889C68.3345 161.603 68.3377 161.012 68.4032 160.575C68.5062 159.895 68.5155 159.213 68.5576 158.528C68.5717 158.287 68.5748 157.842 68.3314 157.692C68.1037 157.553 67.9461 157.773 67.8946 157.995H67.8931Z" fill="#888C85"/>
<path id="Vector_54" d="M81.8005 111.901C81.9487 112.408 82.0579 112.924 82.2358 113.423C82.384 113.84 82.4947 114.408 82.9783 114.507C83.242 114.562 83.3808 114.01 83.3902 113.852C83.4494 112.76 82.8488 111.933 82.3372 111.024C82.2108 110.799 82.022 110.766 81.8692 110.98C81.6929 111.225 81.721 111.631 81.8005 111.901Z" fill="#888C85"/>
<path id="Vector_55" d="M65.6208 104.397C65.769 104.904 65.8782 105.421 66.0561 105.92C66.2043 106.336 66.315 106.904 66.7986 107.004C67.0623 107.059 67.2011 106.506 67.2105 106.349C67.2697 105.257 66.6691 104.43 66.1575 103.52C66.0311 103.296 65.8423 103.263 65.6895 103.477C65.5132 103.722 65.5413 104.127 65.6208 104.397Z" fill="#888C85"/>
<path id="Vector_56" d="M130.914 125.124C131.062 125.631 131.171 126.148 131.349 126.647C131.497 127.063 131.608 127.631 132.092 127.731C132.355 127.786 132.494 127.233 132.503 127.076C132.563 125.984 131.962 125.157 131.45 124.247C131.324 124.023 131.135 123.99 130.982 124.204C130.806 124.449 130.834 124.854 130.914 125.124Z" fill="#888C85"/>
<path id="Vector_57" d="M167.145 158.981C167.137 159.482 167.094 159.98 167.115 160.48C167.137 160.981 167.126 161.565 167.48 161.98C167.672 162.204 167.913 162.042 168.014 161.83C168.446 160.92 168.012 159.71 167.839 158.775C167.802 158.576 167.7 158.223 167.435 158.273C167.17 158.323 167.147 158.794 167.144 158.983L167.145 158.981Z" fill="#888C85"/>
<path id="Vector_58" d="M102.801 108.95C102.949 109.457 103.058 109.974 103.236 110.473C103.384 110.889 103.495 111.457 103.978 111.557C104.242 111.612 104.381 111.059 104.39 110.902C104.449 109.81 103.849 108.983 103.337 108.073C103.211 107.849 103.022 107.816 102.869 108.03C102.693 108.275 102.721 108.68 102.801 108.95Z" fill="#888C85"/>
<path id="Vector_59" d="M82.0232 98.2629C82.1714 98.7699 82.2806 99.2862 82.4584 99.7854C82.6066 100.202 82.7174 100.77 83.201 100.87C83.4646 100.924 83.6034 100.372 83.6128 100.214C83.6721 99.1224 83.0715 98.2956 82.5598 97.3861C82.4334 97.1615 82.2447 97.1287 82.0918 97.3425C81.9155 97.5874 81.9436 97.993 82.0232 98.2629Z" fill="#888C85"/>
<path id="Vector_60" d="M71.863 66.3531C72.0112 66.8601 72.1204 67.3765 72.2983 67.8757C72.4465 68.2922 72.5572 68.8601 73.0408 68.9599C73.3045 69.0145 73.4433 68.4622 73.4527 68.3047C73.5119 67.2127 72.9113 66.3859 72.3997 65.4764C72.2733 65.2518 72.0845 65.219 71.9317 65.4327C71.7554 65.6777 71.7835 66.0833 71.863 66.3531Z" fill="#888C85"/>
<path id="Vector_61" d="M106.28 126.769C106.545 127.584 106.777 128.41 107.058 129.221C107.286 129.878 107.462 130.687 107.941 131.208C108.453 131.765 108.599 130.45 108.568 130.202C108.383 128.708 107.437 127.248 106.815 125.897C106.696 125.638 106.503 125.677 106.348 125.853C106.163 126.063 106.202 126.531 106.28 126.77V126.769Z" fill="#888C85"/>
<path id="Vector_62" d="M97.5124 115.629C97.6684 116.174 97.7869 116.726 97.9663 117.263C98.1067 117.681 98.2191 118.32 98.6512 118.526C99.0833 118.732 99.1894 117.89 99.1909 117.667C99.2034 116.614 98.5139 115.656 98.0475 114.753C97.9273 114.52 97.7277 114.501 97.5795 114.709C97.4032 114.955 97.4328 115.358 97.5108 115.629H97.5124Z" fill="#888C85"/>
<path id="Vector_63" d="M94.4044 115.326C94.6555 116.125 94.8942 116.928 95.2078 117.706C95.3997 118.181 95.6259 119.096 96.1875 119.218C96.501 119.285 96.4636 118.34 96.4527 118.243C96.2889 116.862 95.4246 115.633 94.8552 114.39C94.5229 113.664 94.3155 115.048 94.4028 115.327L94.4044 115.326Z" fill="#888C85"/>
<path id="Vector_64" d="M79.5741 85.9232C79.7098 86.4989 79.8112 87.0807 79.9672 87.6533C80.0936 88.1166 80.184 88.7765 80.6318 89.0339C80.964 89.2242 81.1497 88.6049 81.1622 88.4083C81.2371 87.2492 80.6099 86.2415 80.1497 85.2165C80.0561 85.0075 79.8752 84.9685 79.716 85.1151C79.5366 85.2821 79.5211 85.7064 79.5725 85.9232H79.5741Z" fill="#888C85"/>
<path id="Vector_65" d="M83.9882 84.1724C84.1239 84.7481 84.2253 85.3299 84.3813 85.9025C84.5076 86.3658 84.5981 87.0257 85.0458 87.2831C85.3781 87.4734 85.5638 86.8541 85.5762 86.6575C85.6511 85.4984 85.024 84.4907 84.5638 83.4657C84.4702 83.2567 84.2892 83.2177 84.1301 83.3644C83.9507 83.5313 83.9351 83.9556 83.9866 84.1724H83.9882Z" fill="#888C85"/>
<path id="Vector_66" d="M81.846 84.4569C82.0488 85.2244 82.2454 85.9888 82.5043 86.7392C82.6588 87.1853 82.86 88.2071 83.3686 88.3725C83.7757 88.5051 83.7305 87.6268 83.7149 87.4224C83.6041 86.059 82.7945 84.7705 82.2984 83.5162C82.1908 83.2448 82.0472 83.2791 81.899 83.4663C81.7212 83.6909 81.7805 84.212 81.846 84.4569Z" fill="#888C85"/>
<path id="Vector_67" d="M117.528 119.223C117.748 119.777 117.933 120.34 118.172 120.886C118.361 121.318 118.532 121.947 119.036 122.051C119.384 122.123 119.468 121.329 119.458 121.164C119.389 120.056 118.653 119.236 118.061 118.349C117.623 117.692 117.392 118.885 117.526 119.223H117.528Z" fill="#888C85"/>
<path id="Vector_68" d="M121.629 116.815C121.849 117.369 122.035 117.932 122.274 118.478C122.462 118.91 122.634 119.539 123.138 119.643C123.486 119.715 123.57 118.921 123.559 118.756C123.491 117.648 122.754 116.827 122.163 115.941C121.725 115.285 121.494 116.476 121.628 116.815H121.629Z" fill="#888C85"/>
<path id="Vector_69" d="M119.53 117.421C119.523 116.468 119.497 116.191 119.447 116.588C119.43 116.685 119.423 116.785 119.428 116.883C119.433 117.072 119.469 117.244 119.53 117.421C119.703 117.924 119.946 118.434 120.171 118.914C120.427 119.462 120.94 120.93 121.622 120.981C122.005 121.011 121.888 119.997 121.852 119.824C121.576 118.484 120.559 117.362 119.867 116.211C119.704 115.941 119.533 116.275 119.481 116.417C119.377 116.713 119.408 117.134 119.53 117.42V117.421Z" fill="#888C85"/>
<path id="Vector_70" d="M113.481 103.82C113.637 104.364 113.756 104.916 113.935 105.453C114.075 105.871 114.188 106.511 114.62 106.717C115.052 106.922 115.158 106.08 115.16 105.857C115.172 104.804 114.483 103.846 114.016 102.943C113.896 102.71 113.696 102.692 113.548 102.899C113.372 103.146 113.402 103.548 113.48 103.82H113.481Z" fill="#888C85"/>
<path id="Vector_71" d="M117.68 100.795C117.822 101.304 117.926 101.821 118.093 102.322C118.218 102.697 118.336 103.375 118.751 103.52C119.21 103.679 119.28 102.932 119.291 102.661C119.333 101.672 118.658 100.758 118.215 99.9183C118.093 99.6874 117.897 99.6655 117.747 99.8746C117.571 100.121 117.602 100.522 117.678 100.795H117.68Z" fill="#888C85"/>
<path id="Vector_72" d="M115.117 101.268C115.11 100.299 115.078 100.057 115.024 100.538C115.013 100.672 115.016 100.804 115.033 100.937C115.08 101.251 115.214 101.553 115.316 101.851C115.568 102.587 115.813 103.327 116.089 104.055C116.365 104.784 116.649 105.455 116.961 106.14C117.222 106.709 117.436 107.324 117.935 107.728C118.301 108.024 118.27 106.707 118.245 106.595C117.985 105.43 117.398 104.375 116.905 103.296C116.412 102.216 115.947 101.241 115.511 100.194C115.39 99.9074 115.211 99.9698 115.091 100.205C114.937 100.508 115.015 100.965 115.117 101.268Z" fill="#888C85"/>
</g>
</svg>
