<svg width="20" height="20" viewBox="0 0 20 20" fill="none" xmlns="http://www.w3.org/2000/svg">
<g id="Selected">
<rect width="20" height="20" rx="10" fill="#133B16"/>
<path id="&#244;&#128;&#134;&#133;" d="M9.12875 13.8567C9.39303 13.8567 9.59907 13.7537 9.74241 13.5387L13.935 7.05264C14.0426 6.89138 14.0829 6.74804 14.0829 6.60919C14.0829 6.25532 13.8231 6 13.4602 6C13.2094 6 13.0571 6.08959 12.9048 6.33147L9.11083 12.3427L7.16681 9.87908C7.01899 9.69543 6.86669 9.6148 6.64721 9.6148C6.2799 9.6148 6.01562 9.8746 6.01562 10.2329C6.01562 10.3897 6.06938 10.5375 6.19928 10.6943L8.51956 13.5521C8.68977 13.7626 8.8779 13.8567 9.12875 13.8567Z" fill="white"/>
</g>
</svg>
